<svg version="1.1" id="svg2" width="254.96697998046875" height="199.89251708984375" viewBox="8.003362655639648 8.193316459655762 254.96697998046875 199.89251708984375" xmlns="http://www.w3.org/2000/svg" xmlns:svg="http://www.w3.org/2000/svg">
  <defs id="defs6">
    <clipPath clipPathUnits="userSpaceOnUse" id="clipPath16">
      <path d="M 25.010508,25.010508 H 65.652583 V 65.652583 H 25.010508 Z" clip-rule="evenodd" id="path14"></path>
    </clipPath>
    <clipPath clipPathUnits="userSpaceOnUse" id="clipPath48">
      <path d="M 0,0 H 2479.1665 V 3507.7236 H 0 Z" clip-rule="evenodd" id="path46"></path>
    </clipPath>
    <clipPath clipPathUnits="userSpaceOnUse" id="clipPath58">
      <path d="M 0,0 H 2479.1665 V 3507.7236 H 0 Z" id="path56"></path>
    </clipPath>
    <clipPath clipPathUnits="userSpaceOnUse" id="clipPath64">
      <path d="M 2479.1665,0 H 0 V 3507.7236 H 2479.1665 Z M 132.06911,63.161301 h -18.82939 v 7.190521 h 18.82939 z" clip-rule="evenodd" id="path62"></path>
    </clipPath>
    <clipPath clipPathUnits="userSpaceOnUse" id="clipPath70">
      <path d="M 2479.1665,0 H 0 V 3507.7236 H 2479.1665 Z M 175.82216,63.161301 h -13.70479 v 7.190521 h 13.70479 z" clip-rule="evenodd" id="path68"></path>
    </clipPath>
    <clipPath clipPathUnits="userSpaceOnUse" id="clipPath76">
      <path d="M 2479.1665,0 H 0 V 3507.7236 H 2479.1665 Z M 256.96158,63.161301 h -22.29176 v 7.190521 h 22.29176 z" clip-rule="evenodd" id="path74"></path>
    </clipPath>
    <clipPath clipPathUnits="userSpaceOnUse" id="clipPath88">
      <path d="M 0,0 H 2479.1665 V 3507.7236 H 0 Z" clip-rule="evenodd" id="path86"></path>
    </clipPath>
    <clipPath clipPathUnits="userSpaceOnUse" id="clipPath114">
      <path d="m 218.84193,112.54729 h 40.64208 v 40.64207 h -40.64208 z" clip-rule="evenodd" id="path112"></path>
    </clipPath>
    <clipPath clipPathUnits="userSpaceOnUse" id="clipPath128">
      <path d="M 0,0 H 2479.1665 V 3507.7236 H 0 Z" clip-rule="evenodd" id="path126"></path>
    </clipPath>
    <clipPath clipPathUnits="userSpaceOnUse" id="clipPath146">
      <path d="m 218.84193,156.31567 h 40.64208 v 40.64208 h -40.64208 z" clip-rule="evenodd" id="path144"></path>
    </clipPath>
    <clipPath clipPathUnits="userSpaceOnUse" id="clipPath160">
      <path d="M 0,0 H 2479.1665 V 3507.7236 H 0 Z" clip-rule="evenodd" id="path158"></path>
    </clipPath>
    <clipPath clipPathUnits="userSpaceOnUse" id="clipPath178">
      <path d="m 218.84193,203.21037 h 40.64208 v 40.64207 h -40.64208 z" clip-rule="evenodd" id="path176"></path>
    </clipPath>
    <clipPath clipPathUnits="userSpaceOnUse" id="clipPath192">
      <path d="M 0,0 H 2479.1665 V 3507.7236 H 0 Z" clip-rule="evenodd" id="path190"></path>
    </clipPath>
    <clipPath clipPathUnits="userSpaceOnUse" id="clipPath218">
      <path d="m 218.84193,290.74716 h 40.64208 v 40.64206 h -40.64208 z" clip-rule="evenodd" id="path216"></path>
    </clipPath>
    <clipPath clipPathUnits="userSpaceOnUse" id="clipPath232">
      <path d="M 0,0 H 2479.1665 V 3507.7236 H 0 Z" clip-rule="evenodd" id="path230"></path>
    </clipPath>
    <clipPath clipPathUnits="userSpaceOnUse" id="clipPath258">
      <path d="m 218.84193,378.28394 h 40.64208 V 418.926 h -40.64208 z" clip-rule="evenodd" id="path256"></path>
    </clipPath>
    <clipPath clipPathUnits="userSpaceOnUse" id="clipPath272">
      <path d="M 0,0 H 2479.1665 V 3507.7236 H 0 Z" clip-rule="evenodd" id="path270"></path>
    </clipPath>
    <clipPath clipPathUnits="userSpaceOnUse" id="clipPath298">
      <path d="m 218.84193,462.6944 h 40.64208 v 40.64206 h -40.64208 z" clip-rule="evenodd" id="path296"></path>
    </clipPath>
    <clipPath clipPathUnits="userSpaceOnUse" id="clipPath312">
      <path d="M 0,0 H 2479.1665 V 3507.7236 H 0 Z" clip-rule="evenodd" id="path310"></path>
    </clipPath>
    <clipPath clipPathUnits="userSpaceOnUse" id="clipPath330">
      <path d="m 218.84193,509.58908 h 40.64208 v 40.64206 h -40.64208 z" clip-rule="evenodd" id="path328"></path>
    </clipPath>
    <clipPath clipPathUnits="userSpaceOnUse" id="clipPath344">
      <path d="M 0,0 H 2479.1665 V 3507.7236 H 0 Z" clip-rule="evenodd" id="path342"></path>
    </clipPath>
    <clipPath clipPathUnits="userSpaceOnUse" id="clipPath362">
      <path d="m 218.84193,556.48376 h 40.64208 v 40.64209 h -40.64208 z" clip-rule="evenodd" id="path360"></path>
    </clipPath>
    <clipPath clipPathUnits="userSpaceOnUse" id="clipPath376">
      <path d="M 0,0 H 2479.1665 V 3507.7236 H 0 Z" clip-rule="evenodd" id="path374"></path>
    </clipPath>
    <clipPath clipPathUnits="userSpaceOnUse" id="clipPath386">
      <path d="m 284.49454,556.48376 h 40.64206 v 40.64209 h -40.64206 z" clip-rule="evenodd" id="path384"></path>
    </clipPath>
    <clipPath clipPathUnits="userSpaceOnUse" id="clipPath402">
      <path d="M 0,0 H 2479.1665 V 3507.7236 H 0 Z" clip-rule="evenodd" id="path400"></path>
    </clipPath>
    <clipPath clipPathUnits="userSpaceOnUse" id="clipPath420">
      <path d="m 218.84193,600.2522 h 40.64208 v 40.64209 h -40.64208 z" clip-rule="evenodd" id="path418"></path>
    </clipPath>
    <clipPath clipPathUnits="userSpaceOnUse" id="clipPath434">
      <path d="M 0,0 H 2479.1665 V 3507.7236 H 0 Z" clip-rule="evenodd" id="path432"></path>
    </clipPath>
  </defs>
  <g id="g8" transform="matrix(0.31999998,0,0,0.31999998,0,5.4730666e-5)">
    <g id="g10">
      <g id="g12" clip-path="url(#clipPath16)">
        <g id="g18" transform="matrix(1.1289465,0,0,1.1289465,25.010508,25.010508)">
          <path d="M 26.875,14.6 C 25.1,12.778 21.549999,12.778 18,12.778 c -3.549999,0 -7.1,0 -8.875,1.822 -2.6630001,2.733 -5.3249998,9.72 -3.5500002,15.185999 1.7750001,5.466 9.5570002,6.028 12.4250002,6.028 2.868,0 10.65,-0.562 12.424999,-6.028 C 32.200001,24.320999 29.538,17.333 26.875,14.599999 Z" style="fill:#8a4b38;fill-opacity:1;fill-rule:nonzero;stroke:none" id="path20"></path>
          <path d="M 25.58,14.412 C 24.063999,12.856 21.032,12.856 18,12.856 c -3.032,0 -6.064,0 -7.58,1.556 C 8.1459999,16.746 5.8720002,22.714001 7.388,27.381001 8.9040003,32.049 15.55,32.528999 18,32.528999 c 2.450001,0 9.096001,-0.479999 10.611,-5.147998 1.516001,-4.668 -0.757,-10.635001 -3.031,-12.969 z" style="fill:#a5503c;fill-opacity:1;fill-rule:nonzero;stroke:none" id="path22"></path>
          <path d="m 27.452999,13.025 c -0.382999,-1.616001 -2.263,-3.1700005 -9.437,-3.1700005 h -0.032 c -7.175,0 -9.0550001,1.5539995 -9.437,3.1700005 -0.7329998,3.093 2.263001,4.277999 9.437,4.277999 h 0.032 c 7.174,-9.99e-4 10.17,-1.184999 9.437,-4.277999 z" style="fill:#ccd6dd;fill-opacity:1;fill-rule:nonzero;stroke:none" id="path24"></path>
          <path d="m 25.622,12.355 c 0.292999,0.72 -1.832001,1.658 -7.64,1.658 -5.807998,0 -7.937999,-0.941 -7.639999,-1.658 0.323,-0.779001 3.868999,-1.550001 7.639999,-1.550001 3.771,0 7.324,0.771 7.64,1.550001 z" style="fill:#66757f;fill-opacity:1;fill-rule:nonzero;stroke:none" id="path26"></path>
          <path d="m 10.993,13.144 c 1.015,0.473 3.226,0.869001 6.99,0.869001 3.767,0 5.976,-0.395001 6.99,-0.869001 -0.734,-0.635 -2.760001,-1.269999 -6.99,-1.269999 -4.23,10e-4 -6.256001,0.635 -6.99,1.27 z" style="fill:#77b255;fill-opacity:1;fill-rule:nonzero;stroke:none" id="path28"></path>
          <path d="m 25,14.231 c -0.156,-0.424 -0.429001,-0.393 -0.813999,-0.276 -1.779,0.537 -4.360001,0.641 -6.211001,0.652 -1.851,-0.011 -4.676,-0.161999 -6.211,-0.652 -0.384,-0.122 -0.701,-0.172 -0.862,0.276 -0.156,0.436 0.306,0.852 0.697001,0.947001 2.366,0.576 4.313,0.746 6.375999,0.758999 2.062001,-0.013 3.765,-0.159 6.131001,-0.734999 0.392,-0.096 1.075001,-0.476 0.893999,-0.971 z" style="fill:#ffffff;fill-opacity:1;fill-rule:nonzero;stroke:none" id="path30"></path>
          <path d="M 22.893999,13.686 28.209,5.7559996 33.505001,2.0129995 c 0,0 0.140999,-0.297 -0.779999,-1.01 C 31.804001,0.29000002 31.388,0.58700001 31.388,0.58700001 L 26.84,4.204 20.348,13.9 c 0.993999,-0.051 1.839,-0.124 2.545999,-0.214 z" style="fill:#ccd6dd;fill-opacity:1;fill-rule:nonzero;stroke:none" id="path32"></path>
          <path d="M 22.893999,13.686 28.209,5.7559996 l 5.296001,-3.7430001 -0.067,-0.089 -5.792,3.208 -5.8,8.6740005 c 0.430999,-0.034 0.635,-0.06 1.048,-0.12 z" style="fill:#99aab5;fill-opacity:1;fill-rule:nonzero;stroke:none" id="path34"></path>
          <path d="m 29.285002,4.9450002 c -2e-6,0.4606051 -0.162852,0.8537564 -0.488549,1.1794533 -0.325696,0.3256975 -0.718849,0.4885459 -1.179452,0.4885464 -0.460608,-5e-7 -0.85376,-0.1628489 -1.179457,-0.4885464 -0.325697,-0.3256969 -0.488545,-0.7188482 -0.488543,-1.1794533 -2e-6,-0.4606056 0.162846,-0.8537569 0.488543,-1.1794544 0.325697,-0.3256971 0.718849,-0.4885456 1.179457,-0.4885456 0.460603,0 0.853756,0.1628485 1.179452,0.4885456 0.325697,0.3256975 0.488547,0.7188488 0.488549,1.1794544 z" style="fill:#99aab5;fill-opacity:1;fill-rule:nonzero;stroke:none" id="path36"></path>
          <path d="m 26.212999,4.6389999 c 0,-0.697 0.565001,-1.262 1.261999,-1.262 0.696999,0 1.262,0.565 1.262,1.262 0,0.6970001 -0.565001,1.2620001 -1.262,1.2620001 -0.696998,0 -1.261999,-0.565 -1.261999,-1.2620001 z" style="fill:#ccd6dd;fill-opacity:1;fill-rule:nonzero;stroke:none" id="path38"></path>
          <path d="m 11.459,10.865 c 1.604,-0.639 4.544,-0.802 5.569,-0.757 1.024999,0.045 0.570999,0.757 -0.015,0.757 -1.692999,0 -3.786999,0.401 -5.228,0.772 -0.851,0.219 -1.143,-0.446999 -0.326,-0.772 z" style="fill:#e1e8ed;fill-opacity:1;fill-rule:nonzero;stroke:none" id="path40"></path>
        </g>
      </g>
    </g>
    <g id="g42">
      <g id="g44" clip-path="url(#clipPath48)">
        <g id="g50" transform="scale(3.1263134)"></g>
      </g>
    </g>
    <g id="g52">
      <g id="g54" clip-path="url(#clipPath58)">
        <g id="g60" clip-path="url(#clipPath64)">
          <g id="g66" clip-path="url(#clipPath70)">
            <g id="g72" clip-path="url(#clipPath76)">
              <g id="g78" transform="scale(3.1263134)">
                <path d="m 28.8125,21 h 78.01563 v 1 H 28.8125 Z" style="fill:#32cd30;fill-opacity:1;fill-rule:nonzero;stroke:none" id="path80"></path>
              </g>
            </g>
          </g>
        </g>
      </g>
    </g>
    <g id="g82">
      <g id="g84" clip-path="url(#clipPath88)">
        <g id="g90" transform="scale(3.1263134)">
          <text xml:space="preserve" transform="translate(28.8125,20)" style="font-variant:normal;font-weight:bold;font-size:13px;font-family:'Liberation Mono';-inkscape-font-specification:LiberationMono-Bold;writing-mode:lr-tb;fill:#32cd30;fill-opacity:1;fill-rule:nonzero;stroke:none" id="text94"><tspan x="0 7.8012695 15.602539 23.403809 31.205078 39.006348 46.807617 54.608887 62.410156 70.211426" y="0" id="tspan92">my_project</tspan></text>
          <text xml:space="preserve" transform="translate(8,33)" style="font-variant:normal;font-weight:normal;font-size:13px;font-family:'Liberation Mono';-inkscape-font-specification:LiberationMono;writing-mode:lr-tb;fill:#565656;fill-opacity:1;fill-rule:nonzero;stroke:none" id="text98"><tspan x="0 7.8012695 15.602539 23.403809" y="0" id="tspan96">├── </tspan></text>
          <text xml:space="preserve" transform="translate(39.21875,33)" style="font-variant:normal;font-weight:bold;font-size:13px;font-family:'Liberation Mono';-inkscape-font-specification:LiberationMono-Bold;writing-mode:lr-tb;fill:#598c14;fill-opacity:1;fill-rule:nonzero;stroke:none" id="text102"><tspan x="0 7.8012695 15.602539 23.403809 31.205078 39.006348" y="0" id="tspan100">models</tspan></text>
          <text xml:space="preserve" transform="translate(8,47)" style="font-variant:normal;font-weight:normal;font-size:13px;font-family:'Liberation Mono';-inkscape-font-specification:LiberationMono;writing-mode:lr-tb;fill:#565656;fill-opacity:1;fill-rule:nonzero;stroke:none" id="text106"><tspan x="0 7.8012695 31.205078 39.006348 46.807617 54.608887" y="0" id="tspan104">│ ├── </tspan></text>
        </g>
      </g>
    </g>
    <g id="g108">
      <g id="g110" clip-path="url(#clipPath114)">
        <g id="g116" transform="matrix(1.1289465,0,0,1.1289465,218.84193,112.54729)">
          <path d="m 36,32 c 0,2.209 -1.791,4 -4,4 H 4 C 1.7909999,36 0,34.209 0,32 V 4 C 0,1.7909999 1.7909999,0 4,0 h 28 c 2.209,0 4,1.7909999 4,4 z" style="fill:#226699;fill-opacity:1;fill-rule:nonzero;stroke:none" id="path118"></path>
          <path d="m 29.280001,6.362 c -1.156,-0.7509999 -2.704001,-0.4219999 -3.458,0.736 L 14.936,23.877001 l -5.0290004,-4.65 c -1.014,-0.938 -2.5959997,-0.875 -3.533,0.138001 -0.9370003,1.014 -0.875,2.596 0.1389999,3.533001 l 7.2090005,6.666 c 0.48,0.445 1.09,0.665001 1.696,0.665001 0.673,0 1.534,-0.282 2.099,-1.139 0.332001,-0.506001 12.5,-19.2700005 12.5,-19.2700005 0.751,-1.1590004 0.421,-2.7069998 -0.736999,-3.4580002 z" style="fill:#bbddf5;fill-opacity:1;fill-rule:nonzero;stroke:none" id="path120"></path>
        </g>
      </g>
    </g>
    <g id="g122">
      <g id="g124" clip-path="url(#clipPath128)">
        <g id="g130" transform="scale(3.1263134)">
          <text xml:space="preserve" transform="translate(91.234375,47)" style="font-variant:normal;font-weight:bold;font-size:13px;font-family:'Liberation Mono';-inkscape-font-specification:LiberationMono-Bold;writing-mode:lr-tb;fill:#598c14;fill-opacity:1;fill-rule:nonzero;stroke:none" id="text134"><tspan x="0 7.8012695 15.602539 23.403809 31.205078 39.006348 46.807617 54.608887 62.410156" y="0" id="tspan132">googlenet</tspan></text>
          <text xml:space="preserve" transform="translate(8,62)" style="font-variant:normal;font-weight:normal;font-size:13px;font-family:'Liberation Mono';-inkscape-font-specification:LiberationMono;writing-mode:lr-tb;fill:#565656;fill-opacity:1;fill-rule:nonzero;stroke:none" id="text138"><tspan x="0 7.8012695 31.205078 39.006348 46.807617 54.608887" y="0" id="tspan136">│ ├── </tspan></text>
        </g>
      </g>
    </g>
    <g id="g140">
      <g id="g142" clip-path="url(#clipPath146)">
        <g id="g148" transform="matrix(1.1289465,0,0,1.1289465,218.84193,156.31567)">
          <path d="m 36,32 c 0,2.209 -1.791,4 -4,4 H 4 C 1.7909999,36 0,34.209 0,32 V 4 C 0,1.7909999 1.7909999,0 4,0 h 28 c 2.209,0 4,1.7909999 4,4 z" style="fill:#226699;fill-opacity:1;fill-rule:nonzero;stroke:none" id="path150"></path>
          <path d="m 29.280001,6.362 c -1.156,-0.7509999 -2.704001,-0.4219999 -3.458,0.736 L 14.936,23.877001 l -5.0290004,-4.65 c -1.014,-0.938 -2.5959997,-0.875 -3.533,0.138001 -0.9370003,1.014 -0.875,2.596 0.1389999,3.533001 l 7.2090005,6.666 c 0.48,0.445 1.09,0.665001 1.696,0.665001 0.673,0 1.534,-0.282 2.099,-1.139 0.332001,-0.506001 12.5,-19.2700005 12.5,-19.2700005 0.751,-1.1590004 0.421,-2.7069998 -0.736999,-3.4580002 z" style="fill:#bbddf5;fill-opacity:1;fill-rule:nonzero;stroke:none" id="path152"></path>
        </g>
      </g>
    </g>
    <g id="g154">
      <g id="g156" clip-path="url(#clipPath160)">
        <g id="g162" transform="scale(3.1263134)">
          <text xml:space="preserve" transform="translate(91.234375,62)" style="font-variant:normal;font-weight:bold;font-size:13px;font-family:'Liberation Mono';-inkscape-font-specification:LiberationMono-Bold;writing-mode:lr-tb;fill:#598c14;fill-opacity:1;fill-rule:nonzero;stroke:none" id="text166"><tspan x="0 7.8012695 15.602539 23.403809 31.205078 39.006348" y="0" id="tspan164">resnet</tspan></text>
          <text xml:space="preserve" transform="translate(8,77)" style="font-variant:normal;font-weight:normal;font-size:13px;font-family:'Liberation Mono';-inkscape-font-specification:LiberationMono;writing-mode:lr-tb;fill:#565656;fill-opacity:1;fill-rule:nonzero;stroke:none" id="text170"><tspan x="0 7.8012695 31.205078 39.006348 46.807617 54.608887" y="0" id="tspan168">│ └── </tspan></text>
        </g>
      </g>
    </g>
    <g id="g172">
      <g id="g174" clip-path="url(#clipPath178)">
        <g id="g180" transform="matrix(1.1289465,0,0,1.1289465,218.84193,203.21037)">
          <path d="m 36,32 c 0,2.209 -1.791,4 -4,4 H 4 C 1.7909999,36 0,34.209 0,32 V 4 C 0,1.7909999 1.7909999,0 4,0 h 28 c 2.209,0 4,1.7909999 4,4 z" style="fill:#226699;fill-opacity:1;fill-rule:nonzero;stroke:none" id="path182"></path>
          <path d="m 29.280001,6.362 c -1.156,-0.7509999 -2.704001,-0.4219999 -3.458,0.736 L 14.936,23.877001 l -5.0290004,-4.65 c -1.014,-0.938 -2.5959997,-0.875 -3.533,0.138001 -0.9370003,1.014 -0.875,2.596 0.1389999,3.533001 l 7.2090005,6.666 c 0.48,0.445 1.09,0.665001 1.696,0.665001 0.673,0 1.534,-0.282 2.099,-1.139 0.332001,-0.506001 12.5,-19.2700005 12.5,-19.2700005 0.751,-1.1590004 0.421,-2.7069998 -0.736999,-3.4580002 z" style="fill:#bbddf5;fill-opacity:1;fill-rule:nonzero;stroke:none" id="path184"></path>
        </g>
      </g>
    </g>
    <g id="g186">
      <g id="g188" clip-path="url(#clipPath192)">
        <g id="g194" transform="scale(3.1263134)">
          <text xml:space="preserve" transform="translate(91.234375,77)" style="font-variant:normal;font-weight:bold;font-size:13px;font-family:'Liberation Mono';-inkscape-font-specification:LiberationMono-Bold;writing-mode:lr-tb;fill:#598c14;fill-opacity:1;fill-rule:nonzero;stroke:none" id="text198"><tspan x="0 7.8012695 15.602539 23.403809 31.205078 39.006348 46.807617 54.608887" y="0" id="tspan196">densenet</tspan></text>
          <text xml:space="preserve" transform="translate(8,90)" style="font-variant:normal;font-weight:normal;font-size:13px;font-family:'Liberation Mono';-inkscape-font-specification:LiberationMono;writing-mode:lr-tb;fill:#565656;fill-opacity:1;fill-rule:nonzero;stroke:none" id="text202"><tspan x="0 7.8012695 15.602539 23.403809" y="0" id="tspan200">├── </tspan></text>
          <text xml:space="preserve" transform="translate(39.21875,90)" style="font-variant:normal;font-weight:bold;font-size:13px;font-family:'Liberation Mono';-inkscape-font-specification:LiberationMono-Bold;writing-mode:lr-tb;fill:#203940;fill-opacity:1;fill-rule:nonzero;stroke:none" id="text206"><tspan x="0 7.8012695 15.602539 23.403809 31.205078 39.006348 46.807617 54.608887 62.410156 70.211426 78.012695 85.813965" y="0" id="tspan204">data_loaders</tspan></text>
          <text xml:space="preserve" transform="translate(8,105)" style="font-variant:normal;font-weight:normal;font-size:13px;font-family:'Liberation Mono';-inkscape-font-specification:LiberationMono;writing-mode:lr-tb;fill:#565656;fill-opacity:1;fill-rule:nonzero;stroke:none" id="text210"><tspan x="0 7.8012695 31.205078 39.006348 46.807617 54.608887" y="0" id="tspan208">│ └── </tspan></text>
        </g>
      </g>
    </g>
    <g id="g212">
      <g id="g214" clip-path="url(#clipPath218)">
        <g id="g220" transform="matrix(1.1289465,0,0,1.1289465,218.84193,290.74716)">
          <path d="m 36,32 c 0,2.209 -1.791,4 -4,4 H 4 C 1.7909999,36 0,34.209 0,32 V 4 C 0,1.7909999 1.7909999,0 4,0 h 28 c 2.209,0 4,1.7909999 4,4 z" style="fill:#226699;fill-opacity:1;fill-rule:nonzero;stroke:none" id="path222"></path>
          <path d="m 29.280001,6.362 c -1.156,-0.7509999 -2.704001,-0.4219999 -3.458,0.736 L 14.936,23.877001 l -5.0290004,-4.65 c -1.014,-0.938 -2.5959997,-0.875 -3.533,0.138001 -0.9370003,1.014 -0.875,2.596 0.1389999,3.533001 l 7.2090005,6.666 c 0.48,0.445 1.09,0.665001 1.696,0.665001 0.673,0 1.534,-0.282 2.099,-1.139 0.332001,-0.506001 12.5,-19.2700005 12.5,-19.2700005 0.751,-1.1590004 0.421,-2.7069998 -0.736999,-3.4580002 z" style="fill:#bbddf5;fill-opacity:1;fill-rule:nonzero;stroke:none" id="path224"></path>
        </g>
      </g>
    </g>
    <g id="g226">
      <g id="g228" clip-path="url(#clipPath232)">
        <g id="g234" transform="scale(3.1263134)">
          <text xml:space="preserve" transform="translate(91.234375,105)" style="font-variant:normal;font-weight:bold;font-size:13px;font-family:'Liberation Mono';-inkscape-font-specification:LiberationMono-Bold;writing-mode:lr-tb;fill:#203940;fill-opacity:1;fill-rule:nonzero;stroke:none" id="text238"><tspan x="0 7.8012695 15.602539 23.403809 31.205078 39.006348 46.807617" y="0" id="tspan236">cifar10</tspan></text>
          <text xml:space="preserve" transform="translate(8,118)" style="font-variant:normal;font-weight:normal;font-size:13px;font-family:'Liberation Mono';-inkscape-font-specification:LiberationMono;writing-mode:lr-tb;fill:#565656;fill-opacity:1;fill-rule:nonzero;stroke:none" id="text242"><tspan x="0 7.8012695 15.602539 23.403809" y="0" id="tspan240">├── </tspan></text>
          <text xml:space="preserve" transform="translate(39.21875,118)" style="font-variant:normal;font-weight:bold;font-size:13px;font-family:'Liberation Mono';-inkscape-font-specification:LiberationMono-Bold;writing-mode:lr-tb;fill:#aa5500;fill-opacity:1;fill-rule:nonzero;stroke:none" id="text246"><tspan x="0 7.8012695 15.602539 23.403809 31.205078 39.006348 46.807617 54.608887" y="0" id="tspan244">trainers</tspan></text>
          <text xml:space="preserve" transform="translate(8,132)" style="font-variant:normal;font-weight:normal;font-size:13px;font-family:'Liberation Mono';-inkscape-font-specification:LiberationMono;writing-mode:lr-tb;fill:#565656;fill-opacity:1;fill-rule:nonzero;stroke:none" id="text250"><tspan x="0 7.8012695 31.205078 39.006348 46.807617 54.608887" y="0" id="tspan248">│ └── </tspan></text>
        </g>
      </g>
    </g>
    <g id="g252">
      <g id="g254" clip-path="url(#clipPath258)">
        <g id="g260" transform="matrix(1.1289465,0,0,1.1289465,218.84193,378.28394)">
          <path d="m 36,32 c 0,2.209 -1.791,4 -4,4 H 4 C 1.7909999,36 0,34.209 0,32 V 4 C 0,1.7909999 1.7909999,0 4,0 h 28 c 2.209,0 4,1.7909999 4,4 z" style="fill:#226699;fill-opacity:1;fill-rule:nonzero;stroke:none" id="path262"></path>
          <path d="m 29.280001,6.362 c -1.156,-0.7509999 -2.704001,-0.4219999 -3.458,0.736 L 14.936,23.877001 l -5.0290004,-4.65 c -1.014,-0.938 -2.5959997,-0.875 -3.533,0.138001 -0.9370003,1.014 -0.875,2.596 0.1389999,3.533001 l 7.2090005,6.666 c 0.48,0.445 1.09,0.665001 1.696,0.665001 0.673,0 1.534,-0.282 2.099,-1.139 0.332001,-0.506001 12.5,-19.2700005 12.5,-19.2700005 0.751,-1.1590004 0.421,-2.7069998 -0.736999,-3.4580002 z" style="fill:#bbddf5;fill-opacity:1;fill-rule:nonzero;stroke:none" id="path264"></path>
        </g>
      </g>
    </g>
    <g id="g266">
      <g id="g268" clip-path="url(#clipPath272)">
        <g id="g274" transform="scale(3.1263134)">
          <text xml:space="preserve" transform="translate(91.234375,132)" style="font-variant:normal;font-weight:bold;font-size:13px;font-family:'Liberation Mono';-inkscape-font-specification:LiberationMono-Bold;writing-mode:lr-tb;fill:#aa5500;fill-opacity:1;fill-rule:nonzero;stroke:none" id="text278"><tspan x="0 7.8012695 15.602539 23.403809 31.205078 39.006348 46.807617 54.608887 62.410156 70.211426 78.012695 85.813965 93.615234 101.4165 109.21777 117.01904 124.82031 132.62158 140.42285 148.22412 156.02539 163.82666" y="0" id="tspan276">classification_trainer</tspan></text>
          <text xml:space="preserve" transform="translate(8,145)" style="font-variant:normal;font-weight:normal;font-size:13px;font-family:'Liberation Mono';-inkscape-font-specification:LiberationMono;writing-mode:lr-tb;fill:#565656;fill-opacity:1;fill-rule:nonzero;stroke:none" id="text282"><tspan x="0 7.8012695 15.602539 23.403809" y="0" id="tspan280">└── </tspan></text>
          <text xml:space="preserve" transform="translate(39.21875,145)" style="font-variant:normal;font-weight:bold;font-size:13px;font-family:'Liberation Mono';-inkscape-font-specification:LiberationMono-Bold;writing-mode:lr-tb;fill:#ff6908;fill-opacity:1;fill-rule:nonzero;stroke:none" id="text286"><tspan x="0 7.8012695 15.602539 23.403809 31.205078 39.006348 46.807617 54.608887 62.410156 70.211426 78.012695" y="0" id="tspan284">experiments</tspan></text>
          <text xml:space="preserve" transform="translate(39.21875,160)" style="font-variant:normal;font-weight:normal;font-size:13px;font-family:'Liberation Mono';-inkscape-font-specification:LiberationMono;writing-mode:lr-tb;fill:#565656;fill-opacity:1;fill-rule:nonzero;stroke:none" id="text290"><tspan x="0 7.8012695 15.602539 23.403809" y="0" id="tspan288">├── </tspan></text>
        </g>
      </g>
    </g>
    <g id="g292">
      <g id="g294" clip-path="url(#clipPath298)">
        <g id="g300" transform="matrix(1.1289465,0,0,1.1289465,218.84193,462.6944)">
          <path d="m 36,32 c 0,2.209 -1.791,4 -4,4 H 4 C 1.7909999,36 0,34.209 0,32 V 4 C 0,1.7909999 1.7909999,0 4,0 h 28 c 2.209,0 4,1.7909999 4,4 z" style="fill:#226699;fill-opacity:1;fill-rule:nonzero;stroke:none" id="path302"></path>
          <path d="m 29.280001,6.362 c -1.156,-0.7509999 -2.704001,-0.4219999 -3.458,0.736 L 14.936,23.877001 l -5.0290004,-4.65 c -1.014,-0.938 -2.5959997,-0.875 -3.533,0.138001 -0.9370003,1.014 -0.875,2.596 0.1389999,3.533001 l 7.2090005,6.666 c 0.48,0.445 1.09,0.665001 1.696,0.665001 0.673,0 1.534,-0.282 2.099,-1.139 0.332001,-0.506001 12.5,-19.2700005 12.5,-19.2700005 0.751,-1.1590004 0.421,-2.7069998 -0.736999,-3.4580002 z" style="fill:#bbddf5;fill-opacity:1;fill-rule:nonzero;stroke:none" id="path304"></path>
        </g>
      </g>
    </g>
    <g id="g306">
      <g id="g308" clip-path="url(#clipPath312)">
        <g id="g314" transform="scale(3.1263134)">
          <text xml:space="preserve" transform="translate(91.25,160)" style="font-variant:normal;font-weight:bold;font-size:13px;font-family:'Liberation Mono';-inkscape-font-specification:LiberationMono-Bold;writing-mode:lr-tb;fill:#ff6908;fill-opacity:1;fill-rule:nonzero;stroke:none" id="text318"><tspan x="0 7.8012695 15.602539 23.403809 31.205078 39.006348 46.807617 54.608887" y="0" id="tspan316">densenet</tspan></text>
          <text xml:space="preserve" transform="translate(39.21875,175)" style="font-variant:normal;font-weight:normal;font-size:13px;font-family:'Liberation Mono';-inkscape-font-specification:LiberationMono;writing-mode:lr-tb;fill:#565656;fill-opacity:1;fill-rule:nonzero;stroke:none" id="text322"><tspan x="0 7.8012695 15.602539 23.403809" y="0" id="tspan320">├── </tspan></text>
        </g>
      </g>
    </g>
    <g id="g324">
      <g id="g326" clip-path="url(#clipPath330)">
        <g id="g332" transform="matrix(1.1289465,0,0,1.1289465,218.84193,509.58908)">
          <path d="m 36,32 c 0,2.209 -1.791,4 -4,4 H 4 C 1.7909999,36 0,34.209 0,32 V 4 C 0,1.7909999 1.7909999,0 4,0 h 28 c 2.209,0 4,1.7909999 4,4 z" style="fill:#226699;fill-opacity:1;fill-rule:nonzero;stroke:none" id="path334"></path>
          <path d="m 29.280001,6.362 c -1.156,-0.7509999 -2.704001,-0.4219999 -3.458,0.736 L 14.936,23.877001 l -5.0290004,-4.65 c -1.014,-0.938 -2.5959997,-0.875 -3.533,0.138001 -0.9370003,1.014 -0.875,2.596 0.1389999,3.533001 l 7.2090005,6.666 c 0.48,0.445 1.09,0.665001 1.696,0.665001 0.673,0 1.534,-0.282 2.099,-1.139 0.332001,-0.506001 12.5,-19.2700005 12.5,-19.2700005 0.751,-1.1590004 0.421,-2.7069998 -0.736999,-3.4580002 z" style="fill:#bbddf5;fill-opacity:1;fill-rule:nonzero;stroke:none" id="path336"></path>
        </g>
      </g>
    </g>
    <g id="g338">
      <g id="g340" clip-path="url(#clipPath344)">
        <g id="g346" transform="scale(3.1263134)">
          <text xml:space="preserve" transform="translate(91.25,175)" style="font-variant:normal;font-weight:bold;font-size:13px;font-family:'Liberation Mono';-inkscape-font-specification:LiberationMono-Bold;writing-mode:lr-tb;fill:#ff6908;fill-opacity:1;fill-rule:nonzero;stroke:none" id="text350"><tspan x="0 7.8012695 15.602539 23.403809 31.205078 39.006348" y="0" id="tspan348">resnet</tspan></text>
          <text xml:space="preserve" transform="translate(39.21875,189)" style="font-variant:normal;font-weight:normal;font-size:13px;font-family:'Liberation Mono';-inkscape-font-specification:LiberationMono;writing-mode:lr-tb;fill:#565656;fill-opacity:1;fill-rule:nonzero;stroke:none" id="text354"><tspan x="0 7.8012695 15.602539 23.403809" y="0" id="tspan352">├── </tspan></text>
        </g>
      </g>
    </g>
    <g id="g356">
      <g id="g358" clip-path="url(#clipPath362)">
        <g id="g364" transform="matrix(1.1289465,0,0,1.1289465,218.84193,556.48376)">
          <path d="m 36,32 c 0,2.209 -1.791,4 -4,4 H 4 C 1.7909999,36 0,34.209 0,32 V 4 C 0,1.7909999 1.7909999,0 4,0 h 28 c 2.209,0 4,1.7909999 4,4 z" style="fill:#226699;fill-opacity:1;fill-rule:nonzero;stroke:none" id="path366"></path>
          <path d="m 29.280001,6.362 c -1.156,-0.7509999 -2.704001,-0.4219999 -3.458,0.736 L 14.936,23.877001 l -5.0290004,-4.65 c -1.014,-0.938 -2.5959997,-0.875 -3.533,0.138001 -0.9370003,1.014 -0.875,2.596 0.1389999,3.533001 l 7.2090005,6.666 c 0.48,0.445 1.09,0.665001 1.696,0.665001 0.673,0 1.534,-0.282 2.099,-1.139 0.332001,-0.506001 12.5,-19.2700005 12.5,-19.2700005 0.751,-1.1590004 0.421,-2.7069998 -0.736999,-3.4580002 z" style="fill:#bbddf5;fill-opacity:1;fill-rule:nonzero;stroke:none" id="path368"></path>
        </g>
      </g>
    </g>
    <g id="g370">
      <g id="g372" clip-path="url(#clipPath376)">
        <g id="g378" transform="scale(3.1263134)"></g>
      </g>
    </g>
    <g id="g380">
      <g id="g382" clip-path="url(#clipPath386)">
        <g id="g388" transform="matrix(1.1289465,0,0,1.1289465,284.49454,556.48376)">
          <path d="m 15.977,9.3599997 h 3.789001 c 0.114,-0.191 0.146999,-0.4390002 0.058,-0.6730004 L 15.978002,3.9819994 v 5.3780003 h -10e-4 z" style="fill:#ef9645;fill-opacity:1;fill-rule:nonzero;stroke:none" id="path390"></path>
          <path d="m 12.804,22.277 c -0.057,-0.349001 -0.124,-0.679 -0.206,-0.972999 -0.62,-2.223 -1.140001,-3.164 -0.918001,-5.494 0.29,-1.583999 0.273,-4.763 4.482999,-4.267999 1.112,0.130999 2.843001,0.927 3.834,0.91 0.566999,-0.01 0.979999,-1.157 1.017,-1.539 0.051,-0.526 -0.865,-1.4200001 -1.247999,-1.5539999 -0.383,-0.1339998 -2.012001,-0.6309996 -2.681,-0.8240003 -1.039,-0.3009997 -0.985,-1.705 -1.051,-2.205 -0.031,-0.2350001 0.084,-0.467 0.294,-0.591 0.209999,-0.1240001 0.375,-0.008 0.579001,0.125 l 0.885,0.6480002 c 0.497,0.4260001 -0.874001,1.2399998 -0.503,1.3759999 0,0 1.754999,0.6589999 2.507,0.796 0.412,0.075 1.833999,-1.5290003 1.916999,-2.4700002 0.065,-0.7399998 -3.398,-4.0830002 -5.867,-5.38100009 -0.868,-0.45600003 -1.377,-0.72099995 -1.949001,-0.69400006 -0.682999,0.032 -0.897999,0.30200001 -1.748,1.03000005 C 8.302,4.46 4.5679998,11.577 4.02,13.152 1.7739999,19.613001 1.4229999,23.017 1.3429999,24.940001 c -0.049,0.59 -0.076,1.177 -0.076,1.757999 0.065,0 -1.00000004,5 0,5.999998 1,1 5.3260004,1 5.3260004,1 9.9999997,3.988998 28.5700017,2.947998 28.5700017,-7.233 0,-12.172 -18.813,-10.557 -22.358999,-4.187999 z" style="fill:#ffdc5d;fill-opacity:1;fill-rule:nonzero;stroke:none" id="path392"></path>
          <path d="m 20.629999,32.077999 c -3.16,-0.332001 -5.628,-1.881 -5.767,-1.969999 -0.465,-0.297001 -0.601,-0.913 -0.305,-1.379 0.295999,-0.466 0.913,-0.603001 1.38,-0.308 0.04,0.025 4.002999,2.492 7.845999,1.467 2.125,-0.565999 3.867001,-2.114999 5.177001,-4.600999 0.257999,-0.49 0.865999,-0.676001 1.350999,-0.419001 0.488001,0.257 0.676001,0.862 0.419001,1.351 -1.584999,3.006 -3.754,4.893 -6.447001,5.606001 -1.256999,0.332 -2.502,0.374 -3.653999,0.252998 z" style="fill:#ef9645;fill-opacity:1;fill-rule:nonzero;stroke:none" id="path394"></path>
        </g>
      </g>
    </g>
    <g id="g396">
      <g id="g398" clip-path="url(#clipPath402)">
        <g id="g404" transform="scale(3.1263134)">
          <text xml:space="preserve" transform="translate(104.25,189)" style="font-variant:normal;font-weight:bold;font-size:13px;font-family:'Liberation Mono';-inkscape-font-specification:LiberationMono-Bold;writing-mode:lr-tb;fill:#ff6908;fill-opacity:1;fill-rule:nonzero;stroke:none" id="text408"><tspan x="0 7.8012695 15.602539 23.403809 31.205078" y="0" id="tspan406">dummy</tspan></text>
          <text xml:space="preserve" transform="translate(39.21875,204)" style="font-variant:normal;font-weight:normal;font-size:13px;font-family:'Liberation Mono';-inkscape-font-specification:LiberationMono;writing-mode:lr-tb;fill:#565656;fill-opacity:1;fill-rule:nonzero;stroke:none" id="text412"><tspan x="0 7.8012695 15.602539 23.403809" y="0" id="tspan410">└── </tspan></text>
        </g>
      </g>
    </g>
    <g id="g414">
      <g id="g416" clip-path="url(#clipPath420)">
        <g id="g422" transform="matrix(1.1289465,0,0,1.1289465,218.84193,600.2522)">
          <path d="m 36,32 c 0,2.209 -1.791,4 -4,4 H 4 C 1.7909999,36 0,34.209 0,32 V 4 C 0,1.7909999 1.7909999,0 4,0 h 28 c 2.209,0 4,1.7909999 4,4 z" style="fill:#226699;fill-opacity:1;fill-rule:nonzero;stroke:none" id="path424"></path>
          <path d="m 29.280001,6.362 c -1.156,-0.7509999 -2.704001,-0.4219999 -3.458,0.736 L 14.936,23.877001 l -5.0290004,-4.65 c -1.014,-0.938 -2.5959997,-0.875 -3.533,0.138001 -0.9370003,1.014 -0.875,2.596 0.1389999,3.533001 l 7.2090005,6.666 c 0.48,0.445 1.09,0.665001 1.696,0.665001 0.673,0 1.534,-0.282 2.099,-1.139 0.332001,-0.506001 12.5,-19.2700005 12.5,-19.2700005 0.751,-1.1590004 0.421,-2.7069998 -0.736999,-3.4580002 z" style="fill:#bbddf5;fill-opacity:1;fill-rule:nonzero;stroke:none" id="path426"></path>
        </g>
      </g>
    </g>
    <g id="g428">
      <g id="g430" clip-path="url(#clipPath434)">
        <g id="g436" transform="scale(3.1263134)">
          <text xml:space="preserve" transform="translate(91.25,204)" style="font-variant:normal;font-weight:bold;font-size:13px;font-family:'Liberation Mono';-inkscape-font-specification:LiberationMono-Bold;writing-mode:lr-tb;fill:#ff6908;fill-opacity:1;fill-rule:nonzero;stroke:none" id="text440"><tspan x="0 7.8012695 15.602539 23.403809 31.205078 39.006348 46.807617 54.608887 62.410156" y="0" id="tspan438">googlenet</tspan></text>
        </g>
      </g>
    </g>
  </g>
</svg>