<svg class="rich-terminal" viewBox="0 0 872 294.0" xmlns="http://www.w3.org/2000/svg">
    <!-- Generated with Rich https://www.textualize.io -->
    <style>

    @font-face {
        font-family: "Fira Code";
        src: local("FiraCode-Regular"),
                url("https://cdnjs.cloudflare.com/ajax/libs/firacode/6.2.0/woff2/FiraCode-Regular.woff2") format("woff2"),
                url("https://cdnjs.cloudflare.com/ajax/libs/firacode/6.2.0/woff/FiraCode-Regular.woff") format("woff");
        font-style: normal;
        font-weight: 400;
    }
    @font-face {
        font-family: "Fira Code";
        src: local("FiraCode-Bold"),
                url("https://cdnjs.cloudflare.com/ajax/libs/firacode/6.2.0/woff2/FiraCode-Bold.woff2") format("woff2"),
                url("https://cdnjs.cloudflare.com/ajax/libs/firacode/6.2.0/woff/FiraCode-Bold.woff") format("woff");
        font-style: bold;
        font-weight: 700;
    }

    .terminal-2928037711-matrix {
        font-family: Fira Code, monospace;
        font-size: 20px;
        line-height: 24.4px;
        font-variant-east-asian: full-width;
    }

    .terminal-2928037711-title {
        font-size: 18px;
        font-weight: bold;
        font-family: arial;
    }

    .terminal-2928037711-r1 { fill: #e3e3dd;font-weight: bold }
.terminal-2928037711-r2 { fill: #656660 }
.terminal-2928037711-r3 { fill: #f92672 }
.terminal-2928037711-r4 { fill: #f8f8f2 }
.terminal-2928037711-r5 { fill: #c5c8c6 }
.terminal-2928037711-r6 { fill: #75715e }
.terminal-2928037711-r7 { fill: #66d9ef }
    </style>

    <defs>
    <clipPath id="terminal-2928037711-clip-terminal">
      <rect x="0" y="0" width="853.0" height="243.0" />
    </clipPath>
    <clipPath id="terminal-2928037711-line-0">
    <rect x="0" y="1.5" width="854" height="24.65"/>
            </clipPath>
<clipPath id="terminal-2928037711-line-1">
    <rect x="0" y="25.9" width="854" height="24.65"/>
            </clipPath>
<clipPath id="terminal-2928037711-line-2">
    <rect x="0" y="50.3" width="854" height="24.65"/>
            </clipPath>
<clipPath id="terminal-2928037711-line-3">
    <rect x="0" y="74.7" width="854" height="24.65"/>
            </clipPath>
<clipPath id="terminal-2928037711-line-4">
    <rect x="0" y="99.1" width="854" height="24.65"/>
            </clipPath>
<clipPath id="terminal-2928037711-line-5">
    <rect x="0" y="123.5" width="854" height="24.65"/>
            </clipPath>
<clipPath id="terminal-2928037711-line-6">
    <rect x="0" y="147.9" width="854" height="24.65"/>
            </clipPath>
<clipPath id="terminal-2928037711-line-7">
    <rect x="0" y="172.3" width="854" height="24.65"/>
            </clipPath>
<clipPath id="terminal-2928037711-line-8">
    <rect x="0" y="196.7" width="854" height="24.65"/>
            </clipPath>
    </defs>

    <rect fill="#292929" stroke="rgba(255,255,255,0.35)" stroke-width="1" x="1" y="1" width="870" height="292" rx="8"/>
            <g transform="translate(26,22)">
            <circle cx="0" cy="0" r="7" fill="#ff5f57"/>
            <circle cx="22" cy="0" r="7" fill="#febc2e"/>
            <circle cx="44" cy="0" r="7" fill="#28c840"/>
            </g>
        
    <g transform="translate(9, 41)" clip-path="url(#terminal-2928037711-clip-terminal)">
    <rect fill="#272822" x="0" y="1.5" width="24.4" height="24.65" shape-rendering="crispEdges"/><rect fill="#272822" x="24.4" y="1.5" width="36.6" height="24.65" shape-rendering="crispEdges"/><rect fill="#272822" x="61" y="1.5" width="48.8" height="24.65" shape-rendering="crispEdges"/><rect fill="#272822" x="109.8" y="1.5" width="12.2" height="24.65" shape-rendering="crispEdges"/><rect fill="#272822" x="122" y="1.5" width="48.8" height="24.65" shape-rendering="crispEdges"/><rect fill="#272822" x="170.8" y="1.5" width="12.2" height="24.65" shape-rendering="crispEdges"/><rect fill="#272822" x="183" y="1.5" width="73.2" height="24.65" shape-rendering="crispEdges"/><rect fill="#272822" x="256.2" y="1.5" width="12.2" height="24.65" shape-rendering="crispEdges"/><rect fill="#272822" x="268.4" y="1.5" width="48.8" height="24.65" shape-rendering="crispEdges"/><rect fill="#272822" x="317.2" y="1.5" width="536.8" height="24.65" shape-rendering="crispEdges"/><rect fill="#272822" x="0" y="25.9" width="24.4" height="24.65" shape-rendering="crispEdges"/><rect fill="#272822" x="24.4" y="25.9" width="36.6" height="24.65" shape-rendering="crispEdges"/><rect fill="#272822" x="61" y="25.9" width="48.8" height="24.65" shape-rendering="crispEdges"/><rect fill="#272822" x="109.8" y="25.9" width="12.2" height="24.65" shape-rendering="crispEdges"/><rect fill="#272822" x="122" y="25.9" width="207.4" height="24.65" shape-rendering="crispEdges"/><rect fill="#272822" x="329.4" y="25.9" width="12.2" height="24.65" shape-rendering="crispEdges"/><rect fill="#272822" x="341.6" y="25.9" width="73.2" height="24.65" shape-rendering="crispEdges"/><rect fill="#272822" x="414.8" y="25.9" width="12.2" height="24.65" shape-rendering="crispEdges"/><rect fill="#272822" x="427" y="25.9" width="183" height="24.65" shape-rendering="crispEdges"/><rect fill="#272822" x="610" y="25.9" width="244" height="24.65" shape-rendering="crispEdges"/><rect fill="#272822" x="0" y="50.3" width="24.4" height="24.65" shape-rendering="crispEdges"/><rect fill="#272822" x="24.4" y="50.3" width="36.6" height="24.65" shape-rendering="crispEdges"/><rect fill="#272822" x="61" y="50.3" width="48.8" height="24.65" shape-rendering="crispEdges"/><rect fill="#272822" x="109.8" y="50.3" width="12.2" height="24.65" shape-rendering="crispEdges"/><rect fill="#272822" x="122" y="50.3" width="207.4" height="24.65" shape-rendering="crispEdges"/><rect fill="#272822" x="329.4" y="50.3" width="12.2" height="24.65" shape-rendering="crispEdges"/><rect fill="#272822" x="341.6" y="50.3" width="73.2" height="24.65" shape-rendering="crispEdges"/><rect fill="#272822" x="414.8" y="50.3" width="12.2" height="24.65" shape-rendering="crispEdges"/><rect fill="#272822" x="427" y="50.3" width="85.4" height="24.65" shape-rendering="crispEdges"/><rect fill="#272822" x="512.4" y="50.3" width="341.6" height="24.65" shape-rendering="crispEdges"/><rect fill="#272822" x="0" y="74.7" width="24.4" height="24.65" shape-rendering="crispEdges"/><rect fill="#272822" x="24.4" y="74.7" width="36.6" height="24.65" shape-rendering="crispEdges"/><rect fill="#272822" x="61" y="74.7" width="793" height="24.65" shape-rendering="crispEdges"/><rect fill="#272822" x="0" y="99.1" width="24.4" height="24.65" shape-rendering="crispEdges"/><rect fill="#272822" x="24.4" y="99.1" width="36.6" height="24.65" shape-rendering="crispEdges"/><rect fill="#272822" x="61" y="99.1" width="109.8" height="24.65" shape-rendering="crispEdges"/><rect fill="#272822" x="170.8" y="99.1" width="12.2" height="24.65" shape-rendering="crispEdges"/><rect fill="#272822" x="183" y="99.1" width="12.2" height="24.65" shape-rendering="crispEdges"/><rect fill="#272822" x="195.2" y="99.1" width="12.2" height="24.65" shape-rendering="crispEdges"/><rect fill="#272822" x="207.4" y="99.1" width="512.4" height="24.65" shape-rendering="crispEdges"/><rect fill="#272822" x="719.8" y="99.1" width="134.2" height="24.65" shape-rendering="crispEdges"/><rect fill="#272822" x="0" y="123.5" width="24.4" height="24.65" shape-rendering="crispEdges"/><rect fill="#272822" x="24.4" y="123.5" width="36.6" height="24.65" shape-rendering="crispEdges"/><rect fill="#272822" x="61" y="123.5" width="85.4" height="24.65" shape-rendering="crispEdges"/><rect fill="#272822" x="146.4" y="123.5" width="12.2" height="24.65" shape-rendering="crispEdges"/><rect fill="#272822" x="158.6" y="123.5" width="12.2" height="24.65" shape-rendering="crispEdges"/><rect fill="#272822" x="170.8" y="123.5" width="12.2" height="24.65" shape-rendering="crispEdges"/><rect fill="#272822" x="183" y="123.5" width="85.4" height="24.65" shape-rendering="crispEdges"/><rect fill="#272822" x="268.4" y="123.5" width="12.2" height="24.65" shape-rendering="crispEdges"/><rect fill="#272822" x="280.6" y="123.5" width="12.2" height="24.65" shape-rendering="crispEdges"/><rect fill="#272822" x="292.8" y="123.5" width="561.2" height="24.65" shape-rendering="crispEdges"/><rect fill="#272822" x="0" y="147.9" width="24.4" height="24.65" shape-rendering="crispEdges"/><rect fill="#272822" x="24.4" y="147.9" width="36.6" height="24.65" shape-rendering="crispEdges"/><rect fill="#272822" x="61" y="147.9" width="793" height="24.65" shape-rendering="crispEdges"/><rect fill="#272822" x="0" y="172.3" width="24.4" height="24.65" shape-rendering="crispEdges"/><rect fill="#272822" x="24.4" y="172.3" width="36.6" height="24.65" shape-rendering="crispEdges"/><rect fill="#272822" x="61" y="172.3" width="24.4" height="24.65" shape-rendering="crispEdges"/><rect fill="#272822" x="85.4" y="172.3" width="12.2" height="24.65" shape-rendering="crispEdges"/><rect fill="#272822" x="97.6" y="172.3" width="48.8" height="24.65" shape-rendering="crispEdges"/><rect fill="#272822" x="146.4" y="172.3" width="12.2" height="24.65" shape-rendering="crispEdges"/><rect fill="#272822" x="158.6" y="172.3" width="97.6" height="24.65" shape-rendering="crispEdges"/><rect fill="#272822" x="256.2" y="172.3" width="12.2" height="24.65" shape-rendering="crispEdges"/><rect fill="#272822" x="268.4" y="172.3" width="585.6" height="24.65" shape-rendering="crispEdges"/><rect fill="#272822" x="0" y="196.7" width="24.4" height="24.65" shape-rendering="crispEdges"/><rect fill="#272822" x="24.4" y="196.7" width="36.6" height="24.65" shape-rendering="crispEdges"/><rect fill="#272822" x="61" y="196.7" width="48.8" height="24.65" shape-rendering="crispEdges"/><rect fill="#272822" x="109.8" y="196.7" width="85.4" height="24.65" shape-rendering="crispEdges"/><rect fill="#272822" x="195.2" y="196.7" width="12.2" height="24.65" shape-rendering="crispEdges"/><rect fill="#272822" x="207.4" y="196.7" width="36.6" height="24.65" shape-rendering="crispEdges"/><rect fill="#272822" x="244" y="196.7" width="12.2" height="24.65" shape-rendering="crispEdges"/><rect fill="#272822" x="256.2" y="196.7" width="109.8" height="24.65" shape-rendering="crispEdges"/><rect fill="#272822" x="366" y="196.7" width="12.2" height="24.65" shape-rendering="crispEdges"/><rect fill="#272822" x="378.2" y="196.7" width="475.8" height="24.65" shape-rendering="crispEdges"/><rect fill="#272822" x="0" y="221.1" width="24.4" height="24.65" shape-rendering="crispEdges"/><rect fill="#272822" x="24.4" y="221.1" width="36.6" height="24.65" shape-rendering="crispEdges"/><rect fill="#272822" x="61" y="221.1" width="48.8" height="24.65" shape-rendering="crispEdges"/><rect fill="#272822" x="109.8" y="221.1" width="48.8" height="24.65" shape-rendering="crispEdges"/><rect fill="#272822" x="158.6" y="221.1" width="12.2" height="24.65" shape-rendering="crispEdges"/><rect fill="#272822" x="170.8" y="221.1" width="73.2" height="24.65" shape-rendering="crispEdges"/><rect fill="#272822" x="244" y="221.1" width="12.2" height="24.65" shape-rendering="crispEdges"/><rect fill="#272822" x="256.2" y="221.1" width="109.8" height="24.65" shape-rendering="crispEdges"/><rect fill="#272822" x="366" y="221.1" width="12.2" height="24.65" shape-rendering="crispEdges"/><rect fill="#272822" x="378.2" y="221.1" width="170.8" height="24.65" shape-rendering="crispEdges"/><rect fill="#272822" x="549" y="221.1" width="12.2" height="24.65" shape-rendering="crispEdges"/><rect fill="#272822" x="561.2" y="221.1" width="292.8" height="24.65" shape-rendering="crispEdges"/>
    <g class="terminal-2928037711-matrix">
    <text class="terminal-2928037711-r2" x="24.4" y="20" textLength="36.6" clip-path="url(#terminal-2928037711-line-0)">&#160;1&#160;</text><text class="terminal-2928037711-r3" x="61" y="20" textLength="48.8" clip-path="url(#terminal-2928037711-line-0)">from</text><text class="terminal-2928037711-r4" x="122" y="20" textLength="48.8" clip-path="url(#terminal-2928037711-line-0)">mate</text><text class="terminal-2928037711-r3" x="183" y="20" textLength="73.2" clip-path="url(#terminal-2928037711-line-0)">import</text><text class="terminal-2928037711-r4" x="268.4" y="20" textLength="48.8" clip-path="url(#terminal-2928037711-line-0)">mate</text><text class="terminal-2928037711-r5" x="854" y="20" textLength="12.2" clip-path="url(#terminal-2928037711-line-0)">
</text><text class="terminal-2928037711-r2" x="24.4" y="44.4" textLength="36.6" clip-path="url(#terminal-2928037711-line-1)">&#160;2&#160;</text><text class="terminal-2928037711-r3" x="61" y="44.4" textLength="48.8" clip-path="url(#terminal-2928037711-line-1)">from</text><text class="terminal-2928037711-r4" x="122" y="44.4" textLength="207.4" clip-path="url(#terminal-2928037711-line-1)">pytorch_lightning</text><text class="terminal-2928037711-r3" x="341.6" y="44.4" textLength="73.2" clip-path="url(#terminal-2928037711-line-1)">import</text><text class="terminal-2928037711-r4" x="427" y="44.4" textLength="183" clip-path="url(#terminal-2928037711-line-1)">LightningModule</text><text class="terminal-2928037711-r5" x="854" y="44.4" textLength="12.2" clip-path="url(#terminal-2928037711-line-1)">
</text><text class="terminal-2928037711-r2" x="24.4" y="68.8" textLength="36.6" clip-path="url(#terminal-2928037711-line-2)">&#160;3&#160;</text><text class="terminal-2928037711-r3" x="61" y="68.8" textLength="48.8" clip-path="url(#terminal-2928037711-line-2)">from</text><text class="terminal-2928037711-r4" x="122" y="68.8" textLength="207.4" clip-path="url(#terminal-2928037711-line-2)">pytorch_lightning</text><text class="terminal-2928037711-r3" x="341.6" y="68.8" textLength="73.2" clip-path="url(#terminal-2928037711-line-2)">import</text><text class="terminal-2928037711-r4" x="427" y="68.8" textLength="85.4" clip-path="url(#terminal-2928037711-line-2)">Trainer</text><text class="terminal-2928037711-r5" x="854" y="68.8" textLength="12.2" clip-path="url(#terminal-2928037711-line-2)">
</text><text class="terminal-2928037711-r2" x="24.4" y="93.2" textLength="36.6" clip-path="url(#terminal-2928037711-line-3)">&#160;4&#160;</text><text class="terminal-2928037711-r5" x="854" y="93.2" textLength="12.2" clip-path="url(#terminal-2928037711-line-3)">
</text><text class="terminal-2928037711-r2" x="24.4" y="117.6" textLength="36.6" clip-path="url(#terminal-2928037711-line-4)">&#160;5&#160;</text><text class="terminal-2928037711-r4" x="61" y="117.6" textLength="109.8" clip-path="url(#terminal-2928037711-line-4)">pl_module</text><text class="terminal-2928037711-r3" x="183" y="117.6" textLength="12.2" clip-path="url(#terminal-2928037711-line-4)">=</text><text class="terminal-2928037711-r6" x="207.4" y="117.6" textLength="512.4" clip-path="url(#terminal-2928037711-line-4)">#&#160;initialize&#160;your&#160;pytorch&#160;lightning&#160;module</text><text class="terminal-2928037711-r5" x="854" y="117.6" textLength="12.2" clip-path="url(#terminal-2928037711-line-4)">
</text><text class="terminal-2928037711-r2" x="24.4" y="142" textLength="36.6" clip-path="url(#terminal-2928037711-line-5)">&#160;6&#160;</text><text class="terminal-2928037711-r4" x="61" y="142" textLength="85.4" clip-path="url(#terminal-2928037711-line-5)">trainer</text><text class="terminal-2928037711-r3" x="158.6" y="142" textLength="12.2" clip-path="url(#terminal-2928037711-line-5)">=</text><text class="terminal-2928037711-r4" x="183" y="142" textLength="85.4" clip-path="url(#terminal-2928037711-line-5)">Trainer</text><text class="terminal-2928037711-r4" x="268.4" y="142" textLength="12.2" clip-path="url(#terminal-2928037711-line-5)">(</text><text class="terminal-2928037711-r4" x="280.6" y="142" textLength="12.2" clip-path="url(#terminal-2928037711-line-5)">)</text><text class="terminal-2928037711-r5" x="854" y="142" textLength="12.2" clip-path="url(#terminal-2928037711-line-5)">
</text><text class="terminal-2928037711-r2" x="24.4" y="166.4" textLength="36.6" clip-path="url(#terminal-2928037711-line-6)">&#160;7&#160;</text><text class="terminal-2928037711-r5" x="854" y="166.4" textLength="12.2" clip-path="url(#terminal-2928037711-line-6)">
</text><text class="terminal-2928037711-r2" x="24.4" y="190.8" textLength="36.6" clip-path="url(#terminal-2928037711-line-7)">&#160;8&#160;</text><text class="terminal-2928037711-r7" x="61" y="190.8" textLength="24.4" clip-path="url(#terminal-2928037711-line-7)">if</text><text class="terminal-2928037711-r4" x="97.6" y="190.8" textLength="48.8" clip-path="url(#terminal-2928037711-line-7)">mate</text><text class="terminal-2928037711-r3" x="146.4" y="190.8" textLength="12.2" clip-path="url(#terminal-2928037711-line-7)">.</text><text class="terminal-2928037711-r4" x="158.6" y="190.8" textLength="97.6" clip-path="url(#terminal-2928037711-line-7)">is_train</text><text class="terminal-2928037711-r4" x="256.2" y="190.8" textLength="12.2" clip-path="url(#terminal-2928037711-line-7)">:</text><text class="terminal-2928037711-r5" x="854" y="190.8" textLength="12.2" clip-path="url(#terminal-2928037711-line-7)">
</text><text class="terminal-2928037711-r2" x="24.4" y="215.2" textLength="36.6" clip-path="url(#terminal-2928037711-line-8)">&#160;9&#160;</text><text class="terminal-2928037711-r4" x="109.8" y="215.2" textLength="85.4" clip-path="url(#terminal-2928037711-line-8)">trainer</text><text class="terminal-2928037711-r3" x="195.2" y="215.2" textLength="12.2" clip-path="url(#terminal-2928037711-line-8)">.</text><text class="terminal-2928037711-r4" x="207.4" y="215.2" textLength="36.6" clip-path="url(#terminal-2928037711-line-8)">fit</text><text class="terminal-2928037711-r4" x="244" y="215.2" textLength="12.2" clip-path="url(#terminal-2928037711-line-8)">(</text><text class="terminal-2928037711-r4" x="256.2" y="215.2" textLength="109.8" clip-path="url(#terminal-2928037711-line-8)">pl_module</text><text class="terminal-2928037711-r4" x="366" y="215.2" textLength="12.2" clip-path="url(#terminal-2928037711-line-8)">)</text><text class="terminal-2928037711-r5" x="854" y="215.2" textLength="12.2" clip-path="url(#terminal-2928037711-line-8)">
</text><text class="terminal-2928037711-r2" x="24.4" y="239.6" textLength="36.6" clip-path="url(#terminal-2928037711-line-9)">10&#160;</text><text class="terminal-2928037711-r4" x="109.8" y="239.6" textLength="48.8" clip-path="url(#terminal-2928037711-line-9)">mate</text><text class="terminal-2928037711-r3" x="158.6" y="239.6" textLength="12.2" clip-path="url(#terminal-2928037711-line-9)">.</text><text class="terminal-2928037711-r4" x="170.8" y="239.6" textLength="73.2" clip-path="url(#terminal-2928037711-line-9)">result</text><text class="terminal-2928037711-r4" x="244" y="239.6" textLength="12.2" clip-path="url(#terminal-2928037711-line-9)">(</text><text class="terminal-2928037711-r4" x="256.2" y="239.6" textLength="109.8" clip-path="url(#terminal-2928037711-line-9)">pl_module</text><text class="terminal-2928037711-r3" x="366" y="239.6" textLength="12.2" clip-path="url(#terminal-2928037711-line-9)">.</text><text class="terminal-2928037711-r4" x="378.2" y="239.6" textLength="170.8" clip-path="url(#terminal-2928037711-line-9)">logged_metrics</text><text class="terminal-2928037711-r4" x="549" y="239.6" textLength="12.2" clip-path="url(#terminal-2928037711-line-9)">)</text><text class="terminal-2928037711-r5" x="854" y="239.6" textLength="12.2" clip-path="url(#terminal-2928037711-line-9)">
</text>
    </g>
    </g>
</svg>
