<svg class="rich-terminal" viewBox="0 0 872 196.39999999999998" xmlns="http://www.w3.org/2000/svg">
    <!-- Generated with Rich https://www.textualize.io -->
    <style>

    @font-face {
        font-family: "Fira Code";
        src: local("FiraCode-Regular"),
                url("https://cdnjs.cloudflare.com/ajax/libs/firacode/6.2.0/woff2/FiraCode-Regular.woff2") format("woff2"),
                url("https://cdnjs.cloudflare.com/ajax/libs/firacode/6.2.0/woff/FiraCode-Regular.woff") format("woff");
        font-style: normal;
        font-weight: 400;
    }
    @font-face {
        font-family: "Fira Code";
        src: local("FiraCode-Bold"),
                url("https://cdnjs.cloudflare.com/ajax/libs/firacode/6.2.0/woff2/FiraCode-Bold.woff2") format("woff2"),
                url("https://cdnjs.cloudflare.com/ajax/libs/firacode/6.2.0/woff/FiraCode-Bold.woff") format("woff");
        font-style: bold;
        font-weight: 700;
    }

    .terminal-2276285470-matrix {
        font-family: Fira Code, monospace;
        font-size: 20px;
        line-height: 24.4px;
        font-variant-east-asian: full-width;
    }

    .terminal-2276285470-title {
        font-size: 18px;
        font-weight: bold;
        font-family: arial;
    }

    .terminal-2276285470-r1 { fill: #e3e3dd;font-weight: bold }
.terminal-2276285470-r2 { fill: #656660 }
.terminal-2276285470-r3 { fill: #f92672 }
.terminal-2276285470-r4 { fill: #f8f8f2 }
.terminal-2276285470-r5 { fill: #c5c8c6 }
.terminal-2276285470-r6 { fill: #66d9ef }
.terminal-2276285470-r7 { fill: #e6db74 }
.terminal-2276285470-r8 { fill: #75715e }
    </style>

    <defs>
    <clipPath id="terminal-2276285470-clip-terminal">
      <rect x="0" y="0" width="853.0" height="145.39999999999998" />
    </clipPath>
    <clipPath id="terminal-2276285470-line-0">
    <rect x="0" y="1.5" width="854" height="24.65"/>
            </clipPath>
<clipPath id="terminal-2276285470-line-1">
    <rect x="0" y="25.9" width="854" height="24.65"/>
            </clipPath>
<clipPath id="terminal-2276285470-line-2">
    <rect x="0" y="50.3" width="854" height="24.65"/>
            </clipPath>
<clipPath id="terminal-2276285470-line-3">
    <rect x="0" y="74.7" width="854" height="24.65"/>
            </clipPath>
<clipPath id="terminal-2276285470-line-4">
    <rect x="0" y="99.1" width="854" height="24.65"/>
            </clipPath>
    </defs>

    <rect fill="#292929" stroke="rgba(255,255,255,0.35)" stroke-width="1" x="1" y="1" width="870" height="194.4" rx="8"/>
            <g transform="translate(26,22)">
            <circle cx="0" cy="0" r="7" fill="#ff5f57"/>
            <circle cx="22" cy="0" r="7" fill="#febc2e"/>
            <circle cx="44" cy="0" r="7" fill="#28c840"/>
            </g>
        
    <g transform="translate(9, 41)" clip-path="url(#terminal-2276285470-clip-terminal)">
    <rect fill="#272822" x="0" y="1.5" width="24.4" height="24.65" shape-rendering="crispEdges"/><rect fill="#272822" x="24.4" y="1.5" width="24.4" height="24.65" shape-rendering="crispEdges"/><rect fill="#272822" x="48.8" y="1.5" width="48.8" height="24.65" shape-rendering="crispEdges"/><rect fill="#272822" x="97.6" y="1.5" width="12.2" height="24.65" shape-rendering="crispEdges"/><rect fill="#272822" x="109.8" y="1.5" width="48.8" height="24.65" shape-rendering="crispEdges"/><rect fill="#272822" x="158.6" y="1.5" width="12.2" height="24.65" shape-rendering="crispEdges"/><rect fill="#272822" x="170.8" y="1.5" width="73.2" height="24.65" shape-rendering="crispEdges"/><rect fill="#272822" x="244" y="1.5" width="12.2" height="24.65" shape-rendering="crispEdges"/><rect fill="#272822" x="256.2" y="1.5" width="48.8" height="24.65" shape-rendering="crispEdges"/><rect fill="#272822" x="305" y="1.5" width="549" height="24.65" shape-rendering="crispEdges"/><rect fill="#272822" x="0" y="25.9" width="24.4" height="24.65" shape-rendering="crispEdges"/><rect fill="#272822" x="24.4" y="25.9" width="24.4" height="24.65" shape-rendering="crispEdges"/><rect fill="#272822" x="48.8" y="25.9" width="805.2" height="24.65" shape-rendering="crispEdges"/><rect fill="#272822" x="0" y="50.3" width="24.4" height="24.65" shape-rendering="crispEdges"/><rect fill="#272822" x="24.4" y="50.3" width="24.4" height="24.65" shape-rendering="crispEdges"/><rect fill="#272822" x="48.8" y="50.3" width="24.4" height="24.65" shape-rendering="crispEdges"/><rect fill="#272822" x="73.2" y="50.3" width="12.2" height="24.65" shape-rendering="crispEdges"/><rect fill="#272822" x="85.4" y="50.3" width="48.8" height="24.65" shape-rendering="crispEdges"/><rect fill="#272822" x="134.2" y="50.3" width="12.2" height="24.65" shape-rendering="crispEdges"/><rect fill="#272822" x="146.4" y="50.3" width="85.4" height="24.65" shape-rendering="crispEdges"/><rect fill="#272822" x="231.8" y="50.3" width="12.2" height="24.65" shape-rendering="crispEdges"/><rect fill="#272822" x="244" y="50.3" width="24.4" height="24.65" shape-rendering="crispEdges"/><rect fill="#272822" x="268.4" y="50.3" width="12.2" height="24.65" shape-rendering="crispEdges"/><rect fill="#272822" x="280.6" y="50.3" width="12.2" height="24.65" shape-rendering="crispEdges"/><rect fill="#272822" x="292.8" y="50.3" width="61" height="24.65" shape-rendering="crispEdges"/><rect fill="#272822" x="353.8" y="50.3" width="12.2" height="24.65" shape-rendering="crispEdges"/><rect fill="#272822" x="366" y="50.3" width="12.2" height="24.65" shape-rendering="crispEdges"/><rect fill="#272822" x="378.2" y="50.3" width="475.8" height="24.65" shape-rendering="crispEdges"/><rect fill="#272822" x="0" y="74.7" width="24.4" height="24.65" shape-rendering="crispEdges"/><rect fill="#272822" x="24.4" y="74.7" width="24.4" height="24.65" shape-rendering="crispEdges"/><rect fill="#272822" x="48.8" y="74.7" width="48.8" height="24.65" shape-rendering="crispEdges"/><rect fill="#272822" x="97.6" y="74.7" width="158.6" height="24.65" shape-rendering="crispEdges"/><rect fill="#272822" x="256.2" y="74.7" width="597.8" height="24.65" shape-rendering="crispEdges"/><rect fill="#272822" x="0" y="99.1" width="24.4" height="24.65" shape-rendering="crispEdges"/><rect fill="#272822" x="24.4" y="99.1" width="24.4" height="24.65" shape-rendering="crispEdges"/><rect fill="#272822" x="48.8" y="99.1" width="48.8" height="24.65" shape-rendering="crispEdges"/><rect fill="#272822" x="97.6" y="99.1" width="12.2" height="24.65" shape-rendering="crispEdges"/><rect fill="#272822" x="109.8" y="99.1" width="48.8" height="24.65" shape-rendering="crispEdges"/><rect fill="#272822" x="158.6" y="99.1" width="12.2" height="24.65" shape-rendering="crispEdges"/><rect fill="#272822" x="170.8" y="99.1" width="85.4" height="24.65" shape-rendering="crispEdges"/><rect fill="#272822" x="256.2" y="99.1" width="12.2" height="24.65" shape-rendering="crispEdges"/><rect fill="#272822" x="268.4" y="99.1" width="24.4" height="24.65" shape-rendering="crispEdges"/><rect fill="#272822" x="292.8" y="99.1" width="12.2" height="24.65" shape-rendering="crispEdges"/><rect fill="#272822" x="305" y="99.1" width="12.2" height="24.65" shape-rendering="crispEdges"/><rect fill="#272822" x="317.2" y="99.1" width="48.8" height="24.65" shape-rendering="crispEdges"/><rect fill="#272822" x="366" y="99.1" width="12.2" height="24.65" shape-rendering="crispEdges"/><rect fill="#272822" x="378.2" y="99.1" width="12.2" height="24.65" shape-rendering="crispEdges"/><rect fill="#272822" x="390.4" y="99.1" width="463.6" height="24.65" shape-rendering="crispEdges"/><rect fill="#272822" x="0" y="123.5" width="24.4" height="24.65" shape-rendering="crispEdges"/><rect fill="#272822" x="24.4" y="123.5" width="24.4" height="24.65" shape-rendering="crispEdges"/><rect fill="#272822" x="48.8" y="123.5" width="48.8" height="24.65" shape-rendering="crispEdges"/><rect fill="#272822" x="97.6" y="123.5" width="146.4" height="24.65" shape-rendering="crispEdges"/><rect fill="#272822" x="244" y="123.5" width="610" height="24.65" shape-rendering="crispEdges"/>
    <g class="terminal-2276285470-matrix">
    <text class="terminal-2276285470-r2" x="24.4" y="20" textLength="24.4" clip-path="url(#terminal-2276285470-line-0)">1&#160;</text><text class="terminal-2276285470-r3" x="48.8" y="20" textLength="48.8" clip-path="url(#terminal-2276285470-line-0)">from</text><text class="terminal-2276285470-r4" x="109.8" y="20" textLength="48.8" clip-path="url(#terminal-2276285470-line-0)">mate</text><text class="terminal-2276285470-r3" x="170.8" y="20" textLength="73.2" clip-path="url(#terminal-2276285470-line-0)">import</text><text class="terminal-2276285470-r4" x="256.2" y="20" textLength="48.8" clip-path="url(#terminal-2276285470-line-0)">mate</text><text class="terminal-2276285470-r5" x="854" y="20" textLength="12.2" clip-path="url(#terminal-2276285470-line-0)">
</text><text class="terminal-2276285470-r2" x="24.4" y="44.4" textLength="24.4" clip-path="url(#terminal-2276285470-line-1)">2&#160;</text><text class="terminal-2276285470-r5" x="854" y="44.4" textLength="12.2" clip-path="url(#terminal-2276285470-line-1)">
</text><text class="terminal-2276285470-r2" x="24.4" y="68.8" textLength="24.4" clip-path="url(#terminal-2276285470-line-2)">3&#160;</text><text class="terminal-2276285470-r6" x="48.8" y="68.8" textLength="24.4" clip-path="url(#terminal-2276285470-line-2)">if</text><text class="terminal-2276285470-r4" x="85.4" y="68.8" textLength="48.8" clip-path="url(#terminal-2276285470-line-2)">mate</text><text class="terminal-2276285470-r3" x="134.2" y="68.8" textLength="12.2" clip-path="url(#terminal-2276285470-line-2)">.</text><text class="terminal-2276285470-r4" x="146.4" y="68.8" textLength="85.4" clip-path="url(#terminal-2276285470-line-2)">command</text><text class="terminal-2276285470-r3" x="244" y="68.8" textLength="24.4" clip-path="url(#terminal-2276285470-line-2)">==</text><text class="terminal-2276285470-r7" x="280.6" y="68.8" textLength="12.2" clip-path="url(#terminal-2276285470-line-2)">&quot;</text><text class="terminal-2276285470-r7" x="292.8" y="68.8" textLength="61" clip-path="url(#terminal-2276285470-line-2)">train</text><text class="terminal-2276285470-r7" x="353.8" y="68.8" textLength="12.2" clip-path="url(#terminal-2276285470-line-2)">&quot;</text><text class="terminal-2276285470-r4" x="366" y="68.8" textLength="12.2" clip-path="url(#terminal-2276285470-line-2)">:</text><text class="terminal-2276285470-r5" x="854" y="68.8" textLength="12.2" clip-path="url(#terminal-2276285470-line-2)">
</text><text class="terminal-2276285470-r2" x="24.4" y="93.2" textLength="24.4" clip-path="url(#terminal-2276285470-line-3)">4&#160;</text><text class="terminal-2276285470-r8" x="97.6" y="93.2" textLength="158.6" clip-path="url(#terminal-2276285470-line-3)">#&#160;do&#160;training</text><text class="terminal-2276285470-r5" x="854" y="93.2" textLength="12.2" clip-path="url(#terminal-2276285470-line-3)">
</text><text class="terminal-2276285470-r2" x="24.4" y="117.6" textLength="24.4" clip-path="url(#terminal-2276285470-line-4)">5&#160;</text><text class="terminal-2276285470-r6" x="48.8" y="117.6" textLength="48.8" clip-path="url(#terminal-2276285470-line-4)">elif</text><text class="terminal-2276285470-r4" x="109.8" y="117.6" textLength="48.8" clip-path="url(#terminal-2276285470-line-4)">mate</text><text class="terminal-2276285470-r3" x="158.6" y="117.6" textLength="12.2" clip-path="url(#terminal-2276285470-line-4)">.</text><text class="terminal-2276285470-r4" x="170.8" y="117.6" textLength="85.4" clip-path="url(#terminal-2276285470-line-4)">command</text><text class="terminal-2276285470-r3" x="268.4" y="117.6" textLength="24.4" clip-path="url(#terminal-2276285470-line-4)">==</text><text class="terminal-2276285470-r7" x="305" y="117.6" textLength="12.2" clip-path="url(#terminal-2276285470-line-4)">&quot;</text><text class="terminal-2276285470-r7" x="317.2" y="117.6" textLength="48.8" clip-path="url(#terminal-2276285470-line-4)">test</text><text class="terminal-2276285470-r7" x="366" y="117.6" textLength="12.2" clip-path="url(#terminal-2276285470-line-4)">&quot;</text><text class="terminal-2276285470-r4" x="378.2" y="117.6" textLength="12.2" clip-path="url(#terminal-2276285470-line-4)">:</text><text class="terminal-2276285470-r5" x="854" y="117.6" textLength="12.2" clip-path="url(#terminal-2276285470-line-4)">
</text><text class="terminal-2276285470-r2" x="24.4" y="142" textLength="24.4" clip-path="url(#terminal-2276285470-line-5)">6&#160;</text><text class="terminal-2276285470-r8" x="97.6" y="142" textLength="146.4" clip-path="url(#terminal-2276285470-line-5)">#&#160;do&#160;testing</text><text class="terminal-2276285470-r5" x="854" y="142" textLength="12.2" clip-path="url(#terminal-2276285470-line-5)">
</text>
    </g>
    </g>
</svg>
