<svg class="rich-terminal" viewBox="0 0 628 391.59999999999997" xmlns="http://www.w3.org/2000/svg">
    <!-- Generated with Rich https://www.textualize.io -->
    <style>

    @font-face {
        font-family: "Fira Code";
        src: local("FiraCode-Regular"),
                url("https://cdnjs.cloudflare.com/ajax/libs/firacode/6.2.0/woff2/FiraCode-Regular.woff2") format("woff2"),
                url("https://cdnjs.cloudflare.com/ajax/libs/firacode/6.2.0/woff/FiraCode-Regular.woff") format("woff");
        font-style: normal;
        font-weight: 400;
    }
    @font-face {
        font-family: "Fira Code";
        src: local("FiraCode-Bold"),
                url("https://cdnjs.cloudflare.com/ajax/libs/firacode/6.2.0/woff2/FiraCode-Bold.woff2") format("woff2"),
                url("https://cdnjs.cloudflare.com/ajax/libs/firacode/6.2.0/woff/FiraCode-Bold.woff") format("woff");
        font-style: bold;
        font-weight: 700;
    }

    .terminal-1817129744-matrix {
        font-family: Fira Code, monospace;
        font-size: 20px;
        line-height: 24.4px;
        font-variant-east-asian: full-width;
    }

    .terminal-1817129744-title {
        font-size: 18px;
        font-weight: bold;
        font-family: arial;
    }

    .terminal-1817129744-r1 { fill: #e3e3dd;font-weight: bold }
.terminal-1817129744-r2 { fill: #656660 }
.terminal-1817129744-r3 { fill: #e6db74 }
.terminal-1817129744-r4 { fill: #c5c8c6 }
.terminal-1817129744-r5 { fill: #f92672 }
.terminal-1817129744-r6 { fill: #f8f8f2 }
.terminal-1817129744-r7 { fill: #66d9ef }
    </style>

    <defs>
    <clipPath id="terminal-1817129744-clip-terminal">
      <rect x="0" y="0" width="609.0" height="340.59999999999997" />
    </clipPath>
    <clipPath id="terminal-1817129744-line-0">
    <rect x="0" y="1.5" width="610" height="24.65"/>
            </clipPath>
<clipPath id="terminal-1817129744-line-1">
    <rect x="0" y="25.9" width="610" height="24.65"/>
            </clipPath>
<clipPath id="terminal-1817129744-line-2">
    <rect x="0" y="50.3" width="610" height="24.65"/>
            </clipPath>
<clipPath id="terminal-1817129744-line-3">
    <rect x="0" y="74.7" width="610" height="24.65"/>
            </clipPath>
<clipPath id="terminal-1817129744-line-4">
    <rect x="0" y="99.1" width="610" height="24.65"/>
            </clipPath>
<clipPath id="terminal-1817129744-line-5">
    <rect x="0" y="123.5" width="610" height="24.65"/>
            </clipPath>
<clipPath id="terminal-1817129744-line-6">
    <rect x="0" y="147.9" width="610" height="24.65"/>
            </clipPath>
<clipPath id="terminal-1817129744-line-7">
    <rect x="0" y="172.3" width="610" height="24.65"/>
            </clipPath>
<clipPath id="terminal-1817129744-line-8">
    <rect x="0" y="196.7" width="610" height="24.65"/>
            </clipPath>
<clipPath id="terminal-1817129744-line-9">
    <rect x="0" y="221.1" width="610" height="24.65"/>
            </clipPath>
<clipPath id="terminal-1817129744-line-10">
    <rect x="0" y="245.5" width="610" height="24.65"/>
            </clipPath>
<clipPath id="terminal-1817129744-line-11">
    <rect x="0" y="269.9" width="610" height="24.65"/>
            </clipPath>
<clipPath id="terminal-1817129744-line-12">
    <rect x="0" y="294.3" width="610" height="24.65"/>
            </clipPath>
    </defs>

    <rect fill="#292929" stroke="rgba(255,255,255,0.35)" stroke-width="1" x="1" y="1" width="626" height="389.6" rx="8"/><text class="terminal-1817129744-title" fill="#c5c8c6" text-anchor="middle" x="313" y="27">python</text>
            <g transform="translate(26,22)">
            <circle cx="0" cy="0" r="7" fill="#ff5f57"/>
            <circle cx="22" cy="0" r="7" fill="#febc2e"/>
            <circle cx="44" cy="0" r="7" fill="#28c840"/>
            </g>
        
    <g transform="translate(9, 41)" clip-path="url(#terminal-1817129744-clip-terminal)">
    <rect fill="#272822" x="0" y="1.5" width="24.4" height="24.65" shape-rendering="crispEdges"/><rect fill="#272822" x="24.4" y="1.5" width="36.6" height="24.65" shape-rendering="crispEdges"/><rect fill="#272822" x="61" y="1.5" width="36.6" height="24.65" shape-rendering="crispEdges"/><rect fill="#272822" x="97.6" y="1.5" width="512.4" height="24.65" shape-rendering="crispEdges"/><rect fill="#272822" x="0" y="25.9" width="24.4" height="24.65" shape-rendering="crispEdges"/><rect fill="#272822" x="24.4" y="25.9" width="36.6" height="24.65" shape-rendering="crispEdges"/><rect fill="#272822" x="61" y="25.9" width="256.2" height="24.65" shape-rendering="crispEdges"/><rect fill="#272822" x="317.2" y="25.9" width="292.8" height="24.65" shape-rendering="crispEdges"/><rect fill="#272822" x="0" y="50.3" width="24.4" height="24.65" shape-rendering="crispEdges"/><rect fill="#272822" x="24.4" y="50.3" width="36.6" height="24.65" shape-rendering="crispEdges"/><rect fill="#272822" x="61" y="50.3" width="549" height="24.65" shape-rendering="crispEdges"/><rect fill="#272822" x="0" y="74.7" width="24.4" height="24.65" shape-rendering="crispEdges"/><rect fill="#272822" x="24.4" y="74.7" width="36.6" height="24.65" shape-rendering="crispEdges"/><rect fill="#272822" x="61" y="74.7" width="134.2" height="24.65" shape-rendering="crispEdges"/><rect fill="#272822" x="195.2" y="74.7" width="414.8" height="24.65" shape-rendering="crispEdges"/><rect fill="#272822" x="0" y="99.1" width="24.4" height="24.65" shape-rendering="crispEdges"/><rect fill="#272822" x="24.4" y="99.1" width="36.6" height="24.65" shape-rendering="crispEdges"/><rect fill="#272822" x="61" y="99.1" width="231.8" height="24.65" shape-rendering="crispEdges"/><rect fill="#272822" x="292.8" y="99.1" width="317.2" height="24.65" shape-rendering="crispEdges"/><rect fill="#272822" x="0" y="123.5" width="24.4" height="24.65" shape-rendering="crispEdges"/><rect fill="#272822" x="24.4" y="123.5" width="36.6" height="24.65" shape-rendering="crispEdges"/><rect fill="#272822" x="61" y="123.5" width="36.6" height="24.65" shape-rendering="crispEdges"/><rect fill="#272822" x="97.6" y="123.5" width="512.4" height="24.65" shape-rendering="crispEdges"/><rect fill="#272822" x="0" y="147.9" width="24.4" height="24.65" shape-rendering="crispEdges"/><rect fill="#272822" x="24.4" y="147.9" width="36.6" height="24.65" shape-rendering="crispEdges"/><rect fill="#272822" x="61" y="147.9" width="549" height="24.65" shape-rendering="crispEdges"/><rect fill="#272822" x="0" y="172.3" width="24.4" height="24.65" shape-rendering="crispEdges"/><rect fill="#272822" x="24.4" y="172.3" width="36.6" height="24.65" shape-rendering="crispEdges"/><rect fill="#272822" x="61" y="172.3" width="549" height="24.65" shape-rendering="crispEdges"/><rect fill="#272822" x="0" y="196.7" width="24.4" height="24.65" shape-rendering="crispEdges"/><rect fill="#272822" x="24.4" y="196.7" width="36.6" height="24.65" shape-rendering="crispEdges"/><rect fill="#272822" x="61" y="196.7" width="48.8" height="24.65" shape-rendering="crispEdges"/><rect fill="#272822" x="109.8" y="196.7" width="12.2" height="24.65" shape-rendering="crispEdges"/><rect fill="#272822" x="122" y="196.7" width="48.8" height="24.65" shape-rendering="crispEdges"/><rect fill="#272822" x="170.8" y="196.7" width="12.2" height="24.65" shape-rendering="crispEdges"/><rect fill="#272822" x="183" y="196.7" width="73.2" height="24.65" shape-rendering="crispEdges"/><rect fill="#272822" x="256.2" y="196.7" width="12.2" height="24.65" shape-rendering="crispEdges"/><rect fill="#272822" x="268.4" y="196.7" width="48.8" height="24.65" shape-rendering="crispEdges"/><rect fill="#272822" x="317.2" y="196.7" width="292.8" height="24.65" shape-rendering="crispEdges"/><rect fill="#272822" x="0" y="221.1" width="24.4" height="24.65" shape-rendering="crispEdges"/><rect fill="#272822" x="24.4" y="221.1" width="36.6" height="24.65" shape-rendering="crispEdges"/><rect fill="#272822" x="61" y="221.1" width="48.8" height="24.65" shape-rendering="crispEdges"/><rect fill="#272822" x="109.8" y="221.1" width="12.2" height="24.65" shape-rendering="crispEdges"/><rect fill="#272822" x="122" y="221.1" width="12.2" height="24.65" shape-rendering="crispEdges"/><rect fill="#272822" x="134.2" y="221.1" width="12.2" height="24.65" shape-rendering="crispEdges"/><rect fill="#272822" x="146.4" y="221.1" width="73.2" height="24.65" shape-rendering="crispEdges"/><rect fill="#272822" x="219.6" y="221.1" width="12.2" height="24.65" shape-rendering="crispEdges"/><rect fill="#272822" x="231.8" y="221.1" width="109.8" height="24.65" shape-rendering="crispEdges"/><rect fill="#272822" x="341.6" y="221.1" width="12.2" height="24.65" shape-rendering="crispEdges"/><rect fill="#272822" x="353.8" y="221.1" width="73.2" height="24.65" shape-rendering="crispEdges"/><rect fill="#272822" x="427" y="221.1" width="12.2" height="24.65" shape-rendering="crispEdges"/><rect fill="#272822" x="439.2" y="221.1" width="134.2" height="24.65" shape-rendering="crispEdges"/><rect fill="#272822" x="573.4" y="221.1" width="36.6" height="24.65" shape-rendering="crispEdges"/><rect fill="#272822" x="0" y="245.5" width="24.4" height="24.65" shape-rendering="crispEdges"/><rect fill="#272822" x="24.4" y="245.5" width="36.6" height="24.65" shape-rendering="crispEdges"/><rect fill="#272822" x="61" y="245.5" width="549" height="24.65" shape-rendering="crispEdges"/><rect fill="#272822" x="0" y="269.9" width="24.4" height="24.65" shape-rendering="crispEdges"/><rect fill="#272822" x="24.4" y="269.9" width="36.6" height="24.65" shape-rendering="crispEdges"/><rect fill="#272822" x="61" y="269.9" width="24.4" height="24.65" shape-rendering="crispEdges"/><rect fill="#272822" x="85.4" y="269.9" width="12.2" height="24.65" shape-rendering="crispEdges"/><rect fill="#272822" x="97.6" y="269.9" width="48.8" height="24.65" shape-rendering="crispEdges"/><rect fill="#272822" x="146.4" y="269.9" width="12.2" height="24.65" shape-rendering="crispEdges"/><rect fill="#272822" x="158.6" y="269.9" width="97.6" height="24.65" shape-rendering="crispEdges"/><rect fill="#272822" x="256.2" y="269.9" width="12.2" height="24.65" shape-rendering="crispEdges"/><rect fill="#272822" x="268.4" y="269.9" width="341.6" height="24.65" shape-rendering="crispEdges"/><rect fill="#272822" x="0" y="294.3" width="24.4" height="24.65" shape-rendering="crispEdges"/><rect fill="#272822" x="24.4" y="294.3" width="36.6" height="24.65" shape-rendering="crispEdges"/><rect fill="#272822" x="61" y="294.3" width="48.8" height="24.65" shape-rendering="crispEdges"/><rect fill="#272822" x="109.8" y="294.3" width="73.2" height="24.65" shape-rendering="crispEdges"/><rect fill="#272822" x="183" y="294.3" width="12.2" height="24.65" shape-rendering="crispEdges"/><rect fill="#272822" x="195.2" y="294.3" width="12.2" height="24.65" shape-rendering="crispEdges"/><rect fill="#272822" x="207.4" y="294.3" width="12.2" height="24.65" shape-rendering="crispEdges"/><rect fill="#272822" x="219.6" y="294.3" width="134.2" height="24.65" shape-rendering="crispEdges"/><rect fill="#272822" x="353.8" y="294.3" width="12.2" height="24.65" shape-rendering="crispEdges"/><rect fill="#272822" x="366" y="294.3" width="12.2" height="24.65" shape-rendering="crispEdges"/><rect fill="#272822" x="378.2" y="294.3" width="231.8" height="24.65" shape-rendering="crispEdges"/><rect fill="#272822" x="0" y="318.7" width="24.4" height="24.65" shape-rendering="crispEdges"/><rect fill="#272822" x="24.4" y="318.7" width="36.6" height="24.65" shape-rendering="crispEdges"/><rect fill="#272822" x="61" y="318.7" width="48.8" height="24.65" shape-rendering="crispEdges"/><rect fill="#272822" x="109.8" y="318.7" width="48.8" height="24.65" shape-rendering="crispEdges"/><rect fill="#272822" x="158.6" y="318.7" width="12.2" height="24.65" shape-rendering="crispEdges"/><rect fill="#272822" x="170.8" y="318.7" width="73.2" height="24.65" shape-rendering="crispEdges"/><rect fill="#272822" x="244" y="318.7" width="12.2" height="24.65" shape-rendering="crispEdges"/><rect fill="#272822" x="256.2" y="318.7" width="12.2" height="24.65" shape-rendering="crispEdges"/><rect fill="#272822" x="268.4" y="318.7" width="12.2" height="24.65" shape-rendering="crispEdges"/><rect fill="#272822" x="280.6" y="318.7" width="170.8" height="24.65" shape-rendering="crispEdges"/><rect fill="#272822" x="451.4" y="318.7" width="12.2" height="24.65" shape-rendering="crispEdges"/><rect fill="#272822" x="463.6" y="318.7" width="12.2" height="24.65" shape-rendering="crispEdges"/><rect fill="#272822" x="475.8" y="318.7" width="12.2" height="24.65" shape-rendering="crispEdges"/><rect fill="#272822" x="488" y="318.7" width="73.2" height="24.65" shape-rendering="crispEdges"/><rect fill="#272822" x="561.2" y="318.7" width="12.2" height="24.65" shape-rendering="crispEdges"/><rect fill="#272822" x="573.4" y="318.7" width="12.2" height="24.65" shape-rendering="crispEdges"/><rect fill="#272822" x="585.6" y="318.7" width="24.4" height="24.65" shape-rendering="crispEdges"/>
    <g class="terminal-1817129744-matrix">
    <text class="terminal-1817129744-r2" x="24.4" y="20" textLength="36.6" clip-path="url(#terminal-1817129744-line-0)">&#160;1&#160;</text><text class="terminal-1817129744-r3" x="61" y="20" textLength="36.6" clip-path="url(#terminal-1817129744-line-0)">&quot;&quot;&quot;</text><text class="terminal-1817129744-r4" x="610" y="20" textLength="12.2" clip-path="url(#terminal-1817129744-line-0)">
</text><text class="terminal-1817129744-r2" x="24.4" y="44.4" textLength="36.6" clip-path="url(#terminal-1817129744-line-1)">&#160;2&#160;</text><text class="terminal-1817129744-r3" x="61" y="44.4" textLength="256.2" clip-path="url(#terminal-1817129744-line-1)">#&#160;My&#160;first&#160;experiment</text><text class="terminal-1817129744-r4" x="610" y="44.4" textLength="12.2" clip-path="url(#terminal-1817129744-line-1)">
</text><text class="terminal-1817129744-r2" x="24.4" y="68.8" textLength="36.6" clip-path="url(#terminal-1817129744-line-2)">&#160;3&#160;</text><text class="terminal-1817129744-r4" x="610" y="68.8" textLength="12.2" clip-path="url(#terminal-1817129744-line-2)">
</text><text class="terminal-1817129744-r2" x="24.4" y="93.2" textLength="36.6" clip-path="url(#terminal-1817129744-line-3)">&#160;4&#160;</text><text class="terminal-1817129744-r3" x="61" y="93.2" textLength="134.2" clip-path="url(#terminal-1817129744-line-3)">-&#160;list&#160;item</text><text class="terminal-1817129744-r4" x="610" y="93.2" textLength="12.2" clip-path="url(#terminal-1817129744-line-3)">
</text><text class="terminal-1817129744-r2" x="24.4" y="117.6" textLength="36.6" clip-path="url(#terminal-1817129744-line-4)">&#160;5&#160;</text><text class="terminal-1817129744-r3" x="61" y="117.6" textLength="231.8" clip-path="url(#terminal-1817129744-line-4)">-&#160;another&#160;list&#160;item</text><text class="terminal-1817129744-r4" x="610" y="117.6" textLength="12.2" clip-path="url(#terminal-1817129744-line-4)">
</text><text class="terminal-1817129744-r2" x="24.4" y="142" textLength="36.6" clip-path="url(#terminal-1817129744-line-5)">&#160;6&#160;</text><text class="terminal-1817129744-r3" x="61" y="142" textLength="36.6" clip-path="url(#terminal-1817129744-line-5)">&quot;&quot;&quot;</text><text class="terminal-1817129744-r4" x="610" y="142" textLength="12.2" clip-path="url(#terminal-1817129744-line-5)">
</text><text class="terminal-1817129744-r2" x="24.4" y="166.4" textLength="36.6" clip-path="url(#terminal-1817129744-line-6)">&#160;7&#160;</text><text class="terminal-1817129744-r4" x="610" y="166.4" textLength="12.2" clip-path="url(#terminal-1817129744-line-6)">
</text><text class="terminal-1817129744-r2" x="24.4" y="190.8" textLength="36.6" clip-path="url(#terminal-1817129744-line-7)">&#160;8&#160;</text><text class="terminal-1817129744-r4" x="610" y="190.8" textLength="12.2" clip-path="url(#terminal-1817129744-line-7)">
</text><text class="terminal-1817129744-r2" x="24.4" y="215.2" textLength="36.6" clip-path="url(#terminal-1817129744-line-8)">&#160;9&#160;</text><text class="terminal-1817129744-r5" x="61" y="215.2" textLength="48.8" clip-path="url(#terminal-1817129744-line-8)">from</text><text class="terminal-1817129744-r6" x="122" y="215.2" textLength="48.8" clip-path="url(#terminal-1817129744-line-8)">mate</text><text class="terminal-1817129744-r5" x="183" y="215.2" textLength="73.2" clip-path="url(#terminal-1817129744-line-8)">import</text><text class="terminal-1817129744-r6" x="268.4" y="215.2" textLength="48.8" clip-path="url(#terminal-1817129744-line-8)">mate</text><text class="terminal-1817129744-r4" x="610" y="215.2" textLength="12.2" clip-path="url(#terminal-1817129744-line-8)">
</text><text class="terminal-1817129744-r2" x="24.4" y="239.6" textLength="36.6" clip-path="url(#terminal-1817129744-line-9)">10&#160;</text><text class="terminal-1817129744-r5" x="61" y="239.6" textLength="48.8" clip-path="url(#terminal-1817129744-line-9)">from</text><text class="terminal-1817129744-r6" x="122" y="239.6" textLength="12.2" clip-path="url(#terminal-1817129744-line-9)">.</text><text class="terminal-1817129744-r6" x="134.2" y="239.6" textLength="12.2" clip-path="url(#terminal-1817129744-line-9)">.</text><text class="terminal-1817129744-r6" x="146.4" y="239.6" textLength="73.2" clip-path="url(#terminal-1817129744-line-9)">models</text><text class="terminal-1817129744-r6" x="219.6" y="239.6" textLength="12.2" clip-path="url(#terminal-1817129744-line-9)">.</text><text class="terminal-1817129744-r6" x="231.8" y="239.6" textLength="109.8" clip-path="url(#terminal-1817129744-line-9)">my_module</text><text class="terminal-1817129744-r5" x="353.8" y="239.6" textLength="73.2" clip-path="url(#terminal-1817129744-line-9)">import</text><text class="terminal-1817129744-r6" x="439.2" y="239.6" textLength="134.2" clip-path="url(#terminal-1817129744-line-9)">my_function</text><text class="terminal-1817129744-r4" x="610" y="239.6" textLength="12.2" clip-path="url(#terminal-1817129744-line-9)">
</text><text class="terminal-1817129744-r2" x="24.4" y="264" textLength="36.6" clip-path="url(#terminal-1817129744-line-10)">11&#160;</text><text class="terminal-1817129744-r4" x="610" y="264" textLength="12.2" clip-path="url(#terminal-1817129744-line-10)">
</text><text class="terminal-1817129744-r2" x="24.4" y="288.4" textLength="36.6" clip-path="url(#terminal-1817129744-line-11)">12&#160;</text><text class="terminal-1817129744-r7" x="61" y="288.4" textLength="24.4" clip-path="url(#terminal-1817129744-line-11)">if</text><text class="terminal-1817129744-r6" x="97.6" y="288.4" textLength="48.8" clip-path="url(#terminal-1817129744-line-11)">mate</text><text class="terminal-1817129744-r5" x="146.4" y="288.4" textLength="12.2" clip-path="url(#terminal-1817129744-line-11)">.</text><text class="terminal-1817129744-r6" x="158.6" y="288.4" textLength="97.6" clip-path="url(#terminal-1817129744-line-11)">is_train</text><text class="terminal-1817129744-r6" x="256.2" y="288.4" textLength="12.2" clip-path="url(#terminal-1817129744-line-11)">:</text><text class="terminal-1817129744-r4" x="610" y="288.4" textLength="12.2" clip-path="url(#terminal-1817129744-line-11)">
</text><text class="terminal-1817129744-r2" x="24.4" y="312.8" textLength="36.6" clip-path="url(#terminal-1817129744-line-12)">13&#160;</text><text class="terminal-1817129744-r6" x="109.8" y="312.8" textLength="73.2" clip-path="url(#terminal-1817129744-line-12)">result</text><text class="terminal-1817129744-r5" x="195.2" y="312.8" textLength="12.2" clip-path="url(#terminal-1817129744-line-12)">=</text><text class="terminal-1817129744-r6" x="219.6" y="312.8" textLength="134.2" clip-path="url(#terminal-1817129744-line-12)">my_function</text><text class="terminal-1817129744-r6" x="353.8" y="312.8" textLength="12.2" clip-path="url(#terminal-1817129744-line-12)">(</text><text class="terminal-1817129744-r6" x="366" y="312.8" textLength="12.2" clip-path="url(#terminal-1817129744-line-12)">)</text><text class="terminal-1817129744-r4" x="610" y="312.8" textLength="12.2" clip-path="url(#terminal-1817129744-line-12)">
</text><text class="terminal-1817129744-r2" x="24.4" y="337.2" textLength="36.6" clip-path="url(#terminal-1817129744-line-13)">14&#160;</text><text class="terminal-1817129744-r6" x="109.8" y="337.2" textLength="48.8" clip-path="url(#terminal-1817129744-line-13)">mate</text><text class="terminal-1817129744-r5" x="158.6" y="337.2" textLength="12.2" clip-path="url(#terminal-1817129744-line-13)">.</text><text class="terminal-1817129744-r6" x="170.8" y="337.2" textLength="73.2" clip-path="url(#terminal-1817129744-line-13)">result</text><text class="terminal-1817129744-r6" x="244" y="337.2" textLength="12.2" clip-path="url(#terminal-1817129744-line-13)">(</text><text class="terminal-1817129744-r6" x="256.2" y="337.2" textLength="12.2" clip-path="url(#terminal-1817129744-line-13)">{</text><text class="terminal-1817129744-r3" x="268.4" y="337.2" textLength="12.2" clip-path="url(#terminal-1817129744-line-13)">&#x27;</text><text class="terminal-1817129744-r3" x="280.6" y="337.2" textLength="170.8" clip-path="url(#terminal-1817129744-line-13)">train_accuracy</text><text class="terminal-1817129744-r3" x="451.4" y="337.2" textLength="12.2" clip-path="url(#terminal-1817129744-line-13)">&#x27;</text><text class="terminal-1817129744-r6" x="463.6" y="337.2" textLength="12.2" clip-path="url(#terminal-1817129744-line-13)">:</text><text class="terminal-1817129744-r6" x="488" y="337.2" textLength="73.2" clip-path="url(#terminal-1817129744-line-13)">result</text><text class="terminal-1817129744-r6" x="561.2" y="337.2" textLength="12.2" clip-path="url(#terminal-1817129744-line-13)">}</text><text class="terminal-1817129744-r6" x="573.4" y="337.2" textLength="12.2" clip-path="url(#terminal-1817129744-line-13)">)</text><text class="terminal-1817129744-r4" x="610" y="337.2" textLength="12.2" clip-path="url(#terminal-1817129744-line-13)">
</text>
    </g>
    </g>
</svg>
