<svg class="rich-terminal" viewBox="0 0 872 245.2" xmlns="http://www.w3.org/2000/svg">
    <!-- Generated with Rich https://www.textualize.io -->
    <style>

    @font-face {
        font-family: "Fira Code";
        src: local("FiraCode-Regular"),
                url("https://cdnjs.cloudflare.com/ajax/libs/firacode/6.2.0/woff2/FiraCode-Regular.woff2") format("woff2"),
                url("https://cdnjs.cloudflare.com/ajax/libs/firacode/6.2.0/woff/FiraCode-Regular.woff") format("woff");
        font-style: normal;
        font-weight: 400;
    }
    @font-face {
        font-family: "Fira Code";
        src: local("FiraCode-Bold"),
                url("https://cdnjs.cloudflare.com/ajax/libs/firacode/6.2.0/woff2/FiraCode-Bold.woff2") format("woff2"),
                url("https://cdnjs.cloudflare.com/ajax/libs/firacode/6.2.0/woff/FiraCode-Bold.woff") format("woff");
        font-style: bold;
        font-weight: 700;
    }

    .terminal-1488593082-matrix {
        font-family: Fira Code, monospace;
        font-size: 20px;
        line-height: 24.4px;
        font-variant-east-asian: full-width;
    }

    .terminal-1488593082-title {
        font-size: 18px;
        font-weight: bold;
        font-family: arial;
    }

    .terminal-1488593082-r1 { fill: #e3e3dd;font-weight: bold }
.terminal-1488593082-r2 { fill: #656660 }
.terminal-1488593082-r3 { fill: #f8f8f2 }
.terminal-1488593082-r4 { fill: #d9d9d9 }
.terminal-1488593082-r5 { fill: #e6db74 }
.terminal-1488593082-r6 { fill: #f92672 }
    </style>

    <defs>
    <clipPath id="terminal-1488593082-clip-terminal">
      <rect x="0" y="0" width="853.0" height="194.2" />
    </clipPath>
    <clipPath id="terminal-1488593082-line-0">
    <rect x="0" y="1.5" width="854" height="24.65"/>
            </clipPath>
<clipPath id="terminal-1488593082-line-1">
    <rect x="0" y="25.9" width="854" height="24.65"/>
            </clipPath>
<clipPath id="terminal-1488593082-line-2">
    <rect x="0" y="50.3" width="854" height="24.65"/>
            </clipPath>
<clipPath id="terminal-1488593082-line-3">
    <rect x="0" y="74.7" width="854" height="24.65"/>
            </clipPath>
<clipPath id="terminal-1488593082-line-4">
    <rect x="0" y="99.1" width="854" height="24.65"/>
            </clipPath>
<clipPath id="terminal-1488593082-line-5">
    <rect x="0" y="123.5" width="854" height="24.65"/>
            </clipPath>
<clipPath id="terminal-1488593082-line-6">
    <rect x="0" y="147.9" width="854" height="24.65"/>
            </clipPath>
    </defs>

    <rect fill="#0c0c0c" stroke="rgba(255,255,255,0.35)" stroke-width="1" x="1" y="1" width="870" height="243.2" rx="8"/>
            <g transform="translate(26,22)">
            <circle cx="0" cy="0" r="7" fill="#ff5f57"/>
            <circle cx="22" cy="0" r="7" fill="#febc2e"/>
            <circle cx="44" cy="0" r="7" fill="#28c840"/>
            </g>
        
    <g transform="translate(9, 41)" clip-path="url(#terminal-1488593082-clip-terminal)">
    <rect fill="#272822" x="0" y="1.5" width="24.4" height="24.65" shape-rendering="crispEdges"/><rect fill="#272822" x="24.4" y="1.5" width="24.4" height="24.65" shape-rendering="crispEdges"/><rect fill="#272822" x="48.8" y="1.5" width="12.2" height="24.65" shape-rendering="crispEdges"/><rect fill="#272822" x="61" y="1.5" width="793" height="24.65" shape-rendering="crispEdges"/><rect fill="#272822" x="0" y="25.9" width="24.4" height="24.65" shape-rendering="crispEdges"/><rect fill="#272822" x="24.4" y="25.9" width="24.4" height="24.65" shape-rendering="crispEdges"/><rect fill="#272822" x="48.8" y="25.9" width="12.2" height="24.65" shape-rendering="crispEdges"/><rect fill="#272822" x="61" y="25.9" width="183" height="24.65" shape-rendering="crispEdges"/><rect fill="#272822" x="244" y="25.9" width="12.2" height="24.65" shape-rendering="crispEdges"/><rect fill="#272822" x="256.2" y="25.9" width="12.2" height="24.65" shape-rendering="crispEdges"/><rect fill="#272822" x="268.4" y="25.9" width="12.2" height="24.65" shape-rendering="crispEdges"/><rect fill="#272822" x="280.6" y="25.9" width="12.2" height="24.65" shape-rendering="crispEdges"/><rect fill="#272822" x="292.8" y="25.9" width="561.2" height="24.65" shape-rendering="crispEdges"/><rect fill="#272822" x="0" y="50.3" width="24.4" height="24.65" shape-rendering="crispEdges"/><rect fill="#272822" x="24.4" y="50.3" width="24.4" height="24.65" shape-rendering="crispEdges"/><rect fill="#272822" x="48.8" y="50.3" width="24.4" height="24.65" shape-rendering="crispEdges"/><rect fill="#272822" x="73.2" y="50.3" width="12.2" height="24.65" shape-rendering="crispEdges"/><rect fill="#272822" x="85.4" y="50.3" width="134.2" height="24.65" shape-rendering="crispEdges"/><rect fill="#272822" x="219.6" y="50.3" width="12.2" height="24.65" shape-rendering="crispEdges"/><rect fill="#272822" x="231.8" y="50.3" width="12.2" height="24.65" shape-rendering="crispEdges"/><rect fill="#272822" x="244" y="50.3" width="12.2" height="24.65" shape-rendering="crispEdges"/><rect fill="#272822" x="256.2" y="50.3" width="146.4" height="24.65" shape-rendering="crispEdges"/><rect fill="#272822" x="402.6" y="50.3" width="451.4" height="24.65" shape-rendering="crispEdges"/><rect fill="#272822" x="0" y="74.7" width="24.4" height="24.65" shape-rendering="crispEdges"/><rect fill="#272822" x="24.4" y="74.7" width="24.4" height="24.65" shape-rendering="crispEdges"/><rect fill="#272822" x="48.8" y="74.7" width="24.4" height="24.65" shape-rendering="crispEdges"/><rect fill="#272822" x="73.2" y="74.7" width="12.2" height="24.65" shape-rendering="crispEdges"/><rect fill="#272822" x="85.4" y="74.7" width="12.2" height="24.65" shape-rendering="crispEdges"/><rect fill="#272822" x="97.6" y="74.7" width="12.2" height="24.65" shape-rendering="crispEdges"/><rect fill="#272822" x="109.8" y="74.7" width="744.2" height="24.65" shape-rendering="crispEdges"/><rect fill="#272822" x="0" y="99.1" width="24.4" height="24.65" shape-rendering="crispEdges"/><rect fill="#272822" x="24.4" y="99.1" width="24.4" height="24.65" shape-rendering="crispEdges"/><rect fill="#272822" x="48.8" y="99.1" width="12.2" height="24.65" shape-rendering="crispEdges"/><rect fill="#272822" x="61" y="99.1" width="793" height="24.65" shape-rendering="crispEdges"/><rect fill="#272822" x="0" y="123.5" width="24.4" height="24.65" shape-rendering="crispEdges"/><rect fill="#272822" x="24.4" y="123.5" width="24.4" height="24.65" shape-rendering="crispEdges"/><rect fill="#272822" x="48.8" y="123.5" width="12.2" height="24.65" shape-rendering="crispEdges"/><rect fill="#272822" x="61" y="123.5" width="12.2" height="24.65" shape-rendering="crispEdges"/><rect fill="#272822" x="73.2" y="123.5" width="12.2" height="24.65" shape-rendering="crispEdges"/><rect fill="#272822" x="85.4" y="123.5" width="768.6" height="24.65" shape-rendering="crispEdges"/><rect fill="#272822" x="0" y="147.9" width="24.4" height="24.65" shape-rendering="crispEdges"/><rect fill="#272822" x="24.4" y="147.9" width="24.4" height="24.65" shape-rendering="crispEdges"/><rect fill="#272822" x="48.8" y="147.9" width="12.2" height="24.65" shape-rendering="crispEdges"/><rect fill="#272822" x="61" y="147.9" width="793" height="24.65" shape-rendering="crispEdges"/><rect fill="#272822" x="0" y="172.3" width="24.4" height="24.65" shape-rendering="crispEdges"/><rect fill="#272822" x="24.4" y="172.3" width="24.4" height="24.65" shape-rendering="crispEdges"/><rect fill="#272822" x="48.8" y="172.3" width="805.2" height="24.65" shape-rendering="crispEdges"/>
    <g class="terminal-1488593082-matrix">
    <text class="terminal-1488593082-r2" x="24.4" y="20" textLength="24.4" clip-path="url(#terminal-1488593082-line-0)">1&#160;</text><text class="terminal-1488593082-r3" x="48.8" y="20" textLength="12.2" clip-path="url(#terminal-1488593082-line-0)">{</text><text class="terminal-1488593082-r4" x="854" y="20" textLength="12.2" clip-path="url(#terminal-1488593082-line-0)">
</text><text class="terminal-1488593082-r2" x="24.4" y="44.4" textLength="24.4" clip-path="url(#terminal-1488593082-line-1)">2&#160;</text><text class="terminal-1488593082-r5" x="48.8" y="44.4" textLength="12.2" clip-path="url(#terminal-1488593082-line-1)">&quot;</text><text class="terminal-1488593082-r5" x="61" y="44.4" textLength="183" clip-path="url(#terminal-1488593082-line-1)">experiment_name</text><text class="terminal-1488593082-r5" x="244" y="44.4" textLength="12.2" clip-path="url(#terminal-1488593082-line-1)">&quot;</text><text class="terminal-1488593082-r3" x="256.2" y="44.4" textLength="12.2" clip-path="url(#terminal-1488593082-line-1)">:</text><text class="terminal-1488593082-r3" x="280.6" y="44.4" textLength="12.2" clip-path="url(#terminal-1488593082-line-1)">{</text><text class="terminal-1488593082-r4" x="854" y="44.4" textLength="12.2" clip-path="url(#terminal-1488593082-line-1)">
</text><text class="terminal-1488593082-r2" x="24.4" y="68.8" textLength="24.4" clip-path="url(#terminal-1488593082-line-2)">3&#160;</text><text class="terminal-1488593082-r5" x="73.2" y="68.8" textLength="12.2" clip-path="url(#terminal-1488593082-line-2)">&quot;</text><text class="terminal-1488593082-r5" x="85.4" y="68.8" textLength="134.2" clip-path="url(#terminal-1488593082-line-2)">metric_name</text><text class="terminal-1488593082-r5" x="219.6" y="68.8" textLength="12.2" clip-path="url(#terminal-1488593082-line-2)">&quot;</text><text class="terminal-1488593082-r3" x="231.8" y="68.8" textLength="12.2" clip-path="url(#terminal-1488593082-line-2)">:</text><text class="terminal-1488593082-r3" x="256.2" y="68.8" textLength="146.4" clip-path="url(#terminal-1488593082-line-2)">metric_value</text><text class="terminal-1488593082-r4" x="854" y="68.8" textLength="12.2" clip-path="url(#terminal-1488593082-line-2)">
</text><text class="terminal-1488593082-r2" x="24.4" y="93.2" textLength="24.4" clip-path="url(#terminal-1488593082-line-3)">4&#160;</text><text class="terminal-1488593082-r6" x="73.2" y="93.2" textLength="12.2" clip-path="url(#terminal-1488593082-line-3)">.</text><text class="terminal-1488593082-r6" x="85.4" y="93.2" textLength="12.2" clip-path="url(#terminal-1488593082-line-3)">.</text><text class="terminal-1488593082-r6" x="97.6" y="93.2" textLength="12.2" clip-path="url(#terminal-1488593082-line-3)">.</text><text class="terminal-1488593082-r4" x="854" y="93.2" textLength="12.2" clip-path="url(#terminal-1488593082-line-3)">
</text><text class="terminal-1488593082-r2" x="24.4" y="117.6" textLength="24.4" clip-path="url(#terminal-1488593082-line-4)">5&#160;</text><text class="terminal-1488593082-r3" x="48.8" y="117.6" textLength="12.2" clip-path="url(#terminal-1488593082-line-4)">}</text><text class="terminal-1488593082-r4" x="854" y="117.6" textLength="12.2" clip-path="url(#terminal-1488593082-line-4)">
</text><text class="terminal-1488593082-r2" x="24.4" y="142" textLength="24.4" clip-path="url(#terminal-1488593082-line-5)">6&#160;</text><text class="terminal-1488593082-r6" x="48.8" y="142" textLength="12.2" clip-path="url(#terminal-1488593082-line-5)">.</text><text class="terminal-1488593082-r6" x="61" y="142" textLength="12.2" clip-path="url(#terminal-1488593082-line-5)">.</text><text class="terminal-1488593082-r6" x="73.2" y="142" textLength="12.2" clip-path="url(#terminal-1488593082-line-5)">.</text><text class="terminal-1488593082-r4" x="854" y="142" textLength="12.2" clip-path="url(#terminal-1488593082-line-5)">
</text><text class="terminal-1488593082-r2" x="24.4" y="166.4" textLength="24.4" clip-path="url(#terminal-1488593082-line-6)">7&#160;</text><text class="terminal-1488593082-r3" x="48.8" y="166.4" textLength="12.2" clip-path="url(#terminal-1488593082-line-6)">}</text><text class="terminal-1488593082-r4" x="854" y="166.4" textLength="12.2" clip-path="url(#terminal-1488593082-line-6)">
</text><text class="terminal-1488593082-r2" x="24.4" y="190.8" textLength="24.4" clip-path="url(#terminal-1488593082-line-7)">8&#160;</text><text class="terminal-1488593082-r4" x="854" y="190.8" textLength="12.2" clip-path="url(#terminal-1488593082-line-7)">
</text>
    </g>
    </g>
</svg>
